<svg width="25" height="25" viewBox="0 0 25 25" fill="none" xmlns="http://www.w3.org/2000/svg">
<path d="M17.8353 8.81051L17.8353 8.81048H17.8301C16.583 8.81048 15.5801 7.81125 15.5801 6.64048V3.15048C15.5801 3.1159 15.5896 3.09436 15.6013 3.07833C15.6149 3.05973 15.6377 3.04073 15.6694 3.02826C15.7327 3.00335 15.7966 3.01415 15.8465 3.06403C16.845 4.06248 18.3439 5.57503 19.6561 6.89922C20.288 7.53692 20.8767 8.13093 21.3453 8.60281L21.3465 8.60403C21.3724 8.62986 21.3795 8.65096 21.3819 8.6661C21.3849 8.68415 21.3829 8.7077 21.3716 8.73314C21.3496 8.78292 21.3031 8.82048 21.2301 8.82048C20.0991 8.82048 18.7821 8.82048 17.8353 8.81051ZM21.2301 9.32048C21.8001 9.32048 22.1001 8.65048 21.7001 8.25048C21.2323 7.77945 20.6442 7.18601 20.0126 6.54866C18.6999 5.22402 17.1993 3.70971 16.2001 2.71048C15.7901 2.30048 15.0801 2.58048 15.0801 3.15048V6.64048C15.0801 8.10048 16.3201 9.31048 17.8301 9.31048C18.78 9.32048 20.0998 9.32048 21.2298 9.32048H21.2301Z" fill="#4D4D4D" stroke="#4D4D4D"/>
<path d="M18.0104 11.19H20.9004C21.1742 11.19 21.4004 11.4161 21.4004 11.69V16.93C21.4004 18.5923 20.8243 19.8476 19.9281 20.6893C19.027 21.5356 17.7633 22 16.3304 22H8.47039C7.0375 22 5.77382 21.5356 4.87269 20.6893C3.97651 19.8476 3.40039 18.5923 3.40039 16.93V8.07C3.40039 6.40766 3.97651 5.15241 4.87269 4.31071C5.77382 3.46436 7.0375 3 8.47039 3H12.7104C12.9842 3 13.2104 3.22614 13.2104 3.5V6.39C13.2104 9.03614 15.3642 11.19 18.0104 11.19ZM7.90039 18.75H11.9004C12.5865 18.75 13.1504 18.1861 13.1504 17.5C13.1504 16.8139 12.5865 16.25 11.9004 16.25H7.90039C7.21425 16.25 6.65039 16.8139 6.65039 17.5C6.65039 18.1861 7.21425 18.75 7.90039 18.75ZM7.90039 14.75H13.9004C14.5865 14.75 15.1504 14.1861 15.1504 13.5C15.1504 12.8139 14.5865 12.25 13.9004 12.25H7.90039C7.21425 12.25 6.65039 12.8139 6.65039 13.5C6.65039 14.1861 7.21425 14.75 7.90039 14.75Z" fill="#4D4D4D" stroke="#4D4D4D"/>
</svg>
