<svg width="25" height="25" viewBox="0 0 25 25" fill="none" xmlns="http://www.w3.org/2000/svg">
<path d="M20.2695 10.5H4.26953V18.5C4.26953 21.5 5.26953 22.5 8.26953 22.5H16.2695C19.2695 22.5 20.2695 21.5 20.2695 18.5V10.5Z" stroke="#4D4D4D" stroke-width="1.5" stroke-miterlimit="10" stroke-linecap="round" stroke-linejoin="round"/>
<path d="M21.7998 7.5V8.5C21.7998 9.6 21.2698 10.5 19.7998 10.5H4.7998C3.2698 10.5 2.7998 9.6 2.7998 8.5V7.5C2.7998 6.4 3.2698 5.5 4.7998 5.5H19.7998C21.2698 5.5 21.7998 6.4 21.7998 7.5Z" stroke="#4D4D4D" stroke-width="1.5" stroke-miterlimit="10" stroke-linecap="round" stroke-linejoin="round"/>
<path d="M11.9396 5.50043H6.41959C6.07959 5.13043 6.08959 4.56043 6.44959 4.20043L7.86959 2.78043C8.23959 2.41043 8.84959 2.41043 9.21959 2.78043L11.9396 5.50043Z" stroke="#4D4D4D" stroke-width="1.5" stroke-miterlimit="10" stroke-linecap="round" stroke-linejoin="round"/>
<path d="M18.1694 5.50043H12.6494L15.3694 2.78043C15.7394 2.41043 16.3494 2.41043 16.7194 2.78043L18.1394 4.20043C18.4994 4.56043 18.5094 5.13043 18.1694 5.50043Z" stroke="#4D4D4D" stroke-width="1.5" stroke-miterlimit="10" stroke-linecap="round" stroke-linejoin="round"/>
<path d="M9.24023 10.5V15.64C9.24023 16.44 10.1202 16.91 10.7902 16.48L11.7302 15.86C12.0702 15.64 12.5002 15.64 12.8302 15.86L13.7202 16.46C14.3802 16.9 15.2702 16.43 15.2702 15.63V10.5H9.24023Z" stroke="#4D4D4D" stroke-width="1.5" stroke-miterlimit="10" stroke-linecap="round" stroke-linejoin="round"/>
</svg>
