<svg width="25" height="25" viewBox="0 0 25 25" fill="none" xmlns="http://www.w3.org/2000/svg">
<path d="M19.7988 12.5V18.5C19.7988 20.4339 18.2327 22 16.2988 22H8.29883C6.36497 22 4.79883 20.4339 4.79883 18.5V12.5C4.79883 12.2261 5.02497 12 5.29883 12H7.26883C7.54269 12 7.76883 12.2261 7.76883 12.5V15.64C7.76883 16.5646 8.28025 17.4122 9.08954 17.849C9.45493 18.0501 9.85754 18.15 10.2688 18.15C10.7445 18.15 11.2206 18.0125 11.634 17.7375L12.3051 17.2995L12.9099 17.705C12.91 17.705 12.91 17.705 12.9101 17.7051C13.6685 18.2148 14.6462 18.2809 15.4645 17.841C16.2847 17.4054 16.7988 16.5674 16.7988 15.63V12.5C16.7988 12.2261 17.025 12 17.2988 12H19.2988C19.5727 12 19.7988 12.2261 19.7988 12.5Z" fill="#4D4D4D" stroke="#4D4D4D"/>
<path d="M21.2988 7.5V8.5C21.2988 8.97826 21.1829 9.34359 20.9733 9.5838C20.7746 9.8116 20.4277 10 19.7988 10H4.79883C4.13408 10 3.7931 9.80829 3.60572 9.58829C3.40528 9.35296 3.29883 8.99047 3.29883 8.5V7.5C3.29883 7.00953 3.40528 6.64704 3.60572 6.41171C3.7931 6.19171 4.13408 6 4.79883 6H19.7988C20.4277 6 20.7746 6.1884 20.9733 6.4162C21.1829 6.65641 21.2988 7.02174 21.2988 7.5Z" fill="#4D4D4D" stroke="#4D4D4D"/>
<path d="M8.86604 3.13398L10.7325 5.00043H6.69303C6.64401 4.84929 6.67999 4.67714 6.80314 4.55398L8.22314 3.13398C8.39788 2.95925 8.6913 2.95925 8.86604 3.13398Z" fill="#4D4D4D" stroke="#4D4D4D"/>
<path d="M18.1684 5.50043H12.6484L15.3684 2.78043C15.7384 2.41043 16.3484 2.41043 16.7184 2.78043L18.1384 4.20043C18.4984 4.56043 18.5084 5.13043 18.1684 5.50043Z" fill="#4D4D4D"/>
<path d="M14.2683 11.5C14.8183 11.5 15.2683 11.95 15.2683 12.5V15.63C15.2683 16.43 14.3783 16.91 13.7183 16.46L12.8183 15.86C12.4883 15.64 12.0583 15.64 11.7183 15.86L10.7783 16.48C10.1183 16.92 9.23828 16.44 9.23828 15.65V12.5C9.23828 11.95 9.68828 11.5 10.2383 11.5H14.2683Z" fill="#4D4D4D"/>
</svg>
