<svg width="22" height="27" viewBox="0 0 22 27" fill="none" xmlns="http://www.w3.org/2000/svg">
<path d="M18.1281 14.2844C18.0991 11.0614 20.7671 9.49344 20.8891 9.42044C19.3781 7.21744 17.0361 6.91644 16.2131 6.89244C14.2461 6.68544 12.3381 8.06944 11.3361 8.06944C10.3141 8.06944 8.77109 6.91244 7.10809 6.94644C4.96809 6.97944 2.96609 8.21844 1.86809 10.1424C-0.397912 14.0654 1.29209 19.8304 3.46309 23.0014C4.54909 24.5544 5.81809 26.2884 7.47909 26.2274C9.10409 26.1604 9.71109 25.1914 11.6721 25.1914C13.6151 25.1914 14.1851 26.2274 15.8791 26.1884C17.6231 26.1604 18.7211 24.6284 19.7691 23.0614C21.0241 21.2814 21.5281 19.5284 21.5481 19.4384C21.5071 19.4244 18.1611 18.1474 18.1281 14.2844Z" fill="white"/>
<path d="M14.928 4.80653C15.802 3.71353 16.4 2.22653 16.234 0.717529C14.969 0.773529 13.387 1.59253 12.476 2.66153C11.67 3.60353 10.95 5.14753 11.136 6.59953C12.557 6.70553 14.016 5.88253 14.928 4.80653Z" fill="white"/>
</svg>
