<svg width="184" height="59" viewBox="0 0 184 59" fill="none" xmlns="http://www.w3.org/2000/svg">
<rect y="0.500488" width="184" height="58" rx="4" fill="#D8D8D8"/>
<mask id="mask0_70_4365" style="mask-type:luminance" maskUnits="userSpaceOnUse" x="0" y="0" width="184" height="59">
<rect y="0.500488" width="184" height="58" rx="4" fill="white"/>
</mask>
<g mask="url(#mask0_70_4365)">
<rect y="0.500488" width="184" height="58" rx="10" fill="url(#paint0_linear_70_4365)"/>
</g>
<g clip-path="url(#clip0_70_4365)">
<path fill-rule="evenodd" clip-rule="evenodd" d="M113.857 40.0365C114.646 39.3255 115.039 38.4045 115.039 37.2725C115.039 36.3525 114.77 35.5815 114.231 34.9655C113.69 34.3475 112.849 33.8085 111.704 33.3475C110.768 32.9785 110.123 32.6365 109.768 32.3205C109.36 31.9785 109.157 31.5435 109.157 31.0175C109.157 30.5425 109.335 30.1415 109.69 29.8125C110.11 29.4445 110.696 29.2595 111.446 29.2595C112.395 29.2595 113.243 29.4635 113.993 29.8715L114.526 28.1335C113.723 27.7125 112.717 27.5015 111.506 27.5015C110.148 27.5015 109.062 27.8505 108.248 28.5495C107.431 29.2475 107.023 30.1445 107.023 31.2385C107.023 32.9125 108.187 34.1855 110.517 35.0545C111.373 35.3715 111.986 35.7145 112.353 36.0835C112.722 36.4525 112.906 36.9075 112.906 37.4475C112.906 38.0535 112.683 38.5395 112.236 38.9015C111.787 39.2635 111.162 39.4455 110.359 39.4455C109.24 39.4455 108.213 39.1615 107.277 38.5955L106.783 40.3725C107.652 40.9255 108.8 41.2015 110.232 41.2015C111.783 41.2015 112.99 40.8135 113.857 40.0365ZM80.6452 41.0045H78.3742L77.1302 37.0955H72.8062L71.6212 41.0045H69.4102L73.6942 27.6965H76.3402L80.6452 41.0045ZM76.7552 35.4555L75.6302 31.9805C75.5112 31.6255 75.2882 30.7895 74.9592 29.4735H74.9192C74.7882 30.0395 74.5772 30.8755 74.2872 31.9805L73.1822 35.4555H76.7552ZM90.3392 39.9575C91.2212 39.0105 91.6622 37.7205 91.6622 36.0885C91.6622 34.6275 91.2842 33.4495 90.5262 32.5535C89.7702 31.6585 88.8252 31.2115 87.6932 31.2115C86.2452 31.2115 85.1662 31.7835 84.4552 32.9295H84.4152L84.2962 31.4085H82.4212C82.4732 32.4885 82.5002 33.5415 82.5002 34.5675V44.9145H84.6322V39.8595H84.6722C85.2252 40.7675 86.1332 41.2215 87.3972 41.2215C88.5682 41.2215 89.5492 40.8005 90.3392 39.9575ZM89.4902 36.1665C89.4902 35.2325 89.2802 34.4625 88.8582 33.8565C88.3972 33.2245 87.7782 32.9085 87.0022 32.9085C86.4762 32.9085 85.9982 33.0845 85.5712 33.4315C85.1432 33.7815 84.8632 34.2385 84.7322 34.8045C84.6662 35.0685 84.6332 35.2845 84.6332 35.4545V37.0545C84.6332 37.7525 84.8472 38.3415 85.2752 38.8225C85.7032 39.3035 86.2592 39.5435 86.9432 39.5435C87.7462 39.5435 88.3712 39.2335 88.8182 38.6155C89.2662 37.9965 89.4902 37.1805 89.4902 36.1665ZM101.375 39.9575C102.258 39.0105 102.699 37.7205 102.699 36.0885C102.699 34.6275 102.32 33.4495 101.565 32.5535C100.807 31.6585 99.8622 31.2115 98.7312 31.2115C97.2822 31.2115 96.2032 31.7835 95.4932 32.9295H95.4532L95.3342 31.4085H93.4592C93.5112 32.4885 93.5382 33.5415 93.5382 34.5675V44.9145H95.6702V39.8595H95.7102C96.2622 40.7675 97.1702 41.2215 98.4342 41.2215C99.6052 41.2215 100.586 40.8005 101.375 39.9575ZM100.527 36.1665C100.527 35.2325 100.316 34.4625 99.8942 33.8565C99.4332 33.2245 98.8162 32.9085 98.0392 32.9085C97.5122 32.9085 97.0352 33.0845 96.6072 33.4315C96.1792 33.7815 95.9002 34.2385 95.7692 34.8045C95.7042 35.0685 95.6702 35.2845 95.6702 35.4545V37.0545C95.6702 37.7525 95.8842 38.3415 96.3102 38.8225C96.7382 39.3025 97.2942 39.5435 97.9802 39.5435C98.7832 39.5435 99.4082 39.2335 99.8552 38.6155C100.303 37.9965 100.527 37.1805 100.527 36.1665ZM122.088 33.0085H119.738V37.6675C119.738 38.8525 120.152 39.4445 120.982 39.4445C121.363 39.4445 121.679 39.4115 121.929 39.3455L121.988 40.9645C121.568 41.1215 121.015 41.2005 120.33 41.2005C119.488 41.2005 118.83 40.9435 118.355 40.4305C117.882 39.9165 117.644 39.0545 117.644 37.8435V33.0065H116.244V31.4065H117.644V29.6495L119.738 29.0175V31.4065H122.088V33.0085ZM131.427 39.7605C132.269 38.8135 132.691 37.6025 132.691 36.1275C132.691 34.6925 132.283 33.5215 131.465 32.6145C130.61 31.6795 129.477 31.2125 128.069 31.2125C126.608 31.2125 125.446 31.6865 124.585 32.6345C123.722 33.5815 123.292 34.7995 123.292 36.2865C123.292 37.7075 123.71 38.8865 124.546 39.8205C125.382 40.7545 126.503 41.2215 127.911 41.2215C129.372 41.2215 130.544 40.7355 131.427 39.7605ZM130.479 36.1965C130.479 35.3115 130.29 34.5525 129.907 33.9195C129.46 33.1535 128.821 32.7715 127.993 32.7715C127.136 32.7715 126.485 33.1545 126.038 33.9195C125.655 34.5535 125.466 35.3245 125.466 36.2365C125.466 37.1215 125.655 37.8805 126.038 38.5125C126.499 39.2785 127.143 39.6605 127.974 39.6605C128.788 39.6605 129.427 39.2705 129.888 38.4925C130.281 37.8475 130.479 37.0805 130.479 36.1965ZM138.949 33.2245C139.185 33.2245 139.41 33.2445 139.621 33.2835V31.2505C139.463 31.2255 139.285 31.2115 139.088 31.2115C138.535 31.2115 138.022 31.3825 137.547 31.7255C137.061 32.1065 136.706 32.6145 136.481 33.2455H136.422L136.344 31.4095H134.487C134.54 32.3175 134.567 33.3245 134.567 34.4305L134.547 41.0045H136.678V35.9695C136.678 35.2065 136.856 34.5745 137.211 34.0745C137.619 33.5075 138.199 33.2245 138.949 33.2245ZM149.156 35.7525C149.156 36.1345 149.131 36.4565 149.078 36.7195H142.682C142.707 37.6675 143.016 38.3925 143.61 38.8925C144.149 39.3395 144.846 39.5635 145.702 39.5635C146.649 39.5635 147.513 39.4125 148.29 39.1095L148.624 40.5895C147.716 40.9855 146.644 41.1825 145.407 41.1825C143.919 41.1825 142.751 40.7445 141.901 39.8695C141.053 38.9945 140.628 37.8195 140.628 36.3455C140.628 34.8985 141.023 33.6935 141.814 32.7325C142.642 31.7065 143.761 31.1935 145.169 31.1935C146.552 31.1935 147.599 31.7065 148.31 32.7325C148.873 33.5475 149.156 34.5555 149.156 35.7525ZM146.709 33.5605C146.998 34.0215 147.137 34.5675 147.123 35.1995V35.1985H142.682C142.747 34.5545 142.958 34.0015 143.313 33.5405C143.746 32.9605 144.313 32.6715 145.01 32.6715C145.773 32.6715 146.34 32.9675 146.709 33.5605Z" fill="white"/>
<path fill-rule="evenodd" clip-rule="evenodd" d="M98.0878 22.9334H97.0408V16.0564H98.0878V22.9334ZM74.9918 22.1674C75.6968 21.5724 76.0498 20.6864 76.0498 19.5094C76.0498 18.4614 75.7228 17.6564 75.0708 17.0934C74.4888 16.5954 73.6258 16.3464 72.4808 16.3464C71.8328 16.3464 71.2328 16.3924 70.6758 16.4824V22.9134C71.1028 22.9654 71.6128 22.9914 72.2088 22.9914C73.4108 22.9914 74.3388 22.7164 74.9918 22.1674ZM74.3388 17.7824C74.7428 18.1904 74.9448 18.7754 74.9448 19.5384C74.9448 20.3924 74.7248 21.0424 74.2888 21.4884C73.8528 21.9344 73.2338 22.1574 72.4318 22.1574C72.0888 22.1574 71.8528 22.1484 71.7238 22.1284V17.2394C71.9568 17.1934 72.2378 17.1714 72.5678 17.1714C73.3448 17.1714 73.9348 17.3754 74.3388 17.7824ZM81.9088 20.5374C81.9088 21.2624 81.7018 21.8564 81.2878 22.3224C80.8538 22.8014 80.2788 23.0404 79.5608 23.0404C78.8688 23.0404 78.3178 22.8114 77.9068 22.3514C77.4968 21.8924 77.2918 21.3134 77.2918 20.6154C77.2918 19.8854 77.5028 19.2864 77.9268 18.8214C78.3508 18.3564 78.9208 18.1234 79.6388 18.1234C80.3308 18.1234 80.8868 18.3524 81.3078 18.8114C81.7078 19.2574 81.9088 19.8334 81.9088 20.5374ZM80.5408 19.4524C80.7278 19.7634 80.8218 20.1364 80.8218 20.5714C80.8218 21.0064 80.7248 21.3824 80.5308 21.6994C80.3048 22.0824 79.9908 22.2734 79.5908 22.2734C79.1828 22.2734 78.8668 22.0854 78.6398 21.7094C78.4528 21.3984 78.3588 21.0254 78.3588 20.5904C78.3588 20.1424 78.4518 19.7634 78.6398 19.4524C78.8598 19.0764 79.1798 18.8884 79.6008 18.8884C80.0078 18.8884 80.3208 19.0764 80.5408 19.4524ZM89.7648 18.2194L89.7645 18.2204H88.7358L88.1638 20.4224C88.0218 20.9724 87.9148 21.4894 87.8438 21.9744H87.8148C87.7178 21.4764 87.5918 20.9594 87.4368 20.4224L86.7958 18.2204H85.9418L85.2728 20.4704C85.0908 21.0774 84.9618 21.5794 84.8838 21.9734H84.8648C84.7798 21.4954 84.6738 20.9904 84.5448 20.4604L84.0118 18.2194H82.9348L84.3218 22.9334H85.2928L85.9418 20.8864C86.1038 20.3884 86.2298 19.8814 86.3208 19.3634H86.3398C86.4378 19.8674 86.5638 20.3754 86.7188 20.8864L87.3298 22.9334H88.2898L89.7645 18.2204H89.7648V18.2194ZM94.1498 22.9334H95.1978V20.1094C95.1978 19.4174 95.0168 18.8964 94.6548 18.5474C94.3638 18.2624 93.9978 18.1204 93.5578 18.1204C93.2098 18.1204 92.8918 18.2094 92.6078 18.3854C92.3688 18.5364 92.1868 18.7254 92.0648 18.9544H92.0358L91.9868 18.2174H91.0658C91.0908 18.7034 91.1038 19.1524 91.1038 19.5664V22.9324H92.1518V20.1364C92.1518 19.8274 92.2498 19.5574 92.4428 19.3284C92.6378 19.0994 92.8888 18.9854 93.1998 18.9854C93.8338 18.9854 94.1498 19.4014 94.1498 20.2334V22.9334ZM103.637 22.3224C104.051 21.8564 104.258 21.2624 104.258 20.5374C104.258 19.8334 104.057 19.2574 103.657 18.8114C103.235 18.3524 102.68 18.1234 101.987 18.1234C101.27 18.1234 100.7 18.3564 100.276 18.8214C99.8518 19.2864 99.6408 19.8854 99.6408 20.6154C99.6408 21.3134 99.8458 21.8924 100.256 22.3514C100.666 22.8114 101.217 23.0404 101.91 23.0404C102.627 23.0404 103.203 22.8014 103.637 22.3224ZM103.17 20.5714C103.17 20.1364 103.076 19.7634 102.889 19.4524C102.67 19.0764 102.356 18.8884 101.95 18.8884C101.528 18.8884 101.208 19.0764 100.989 19.4524C100.801 19.7634 100.708 20.1424 100.708 20.5904C100.708 21.0254 100.802 21.3984 100.989 21.7094C101.216 22.0854 101.532 22.2734 101.94 22.2734C102.34 22.2734 102.653 22.0824 102.879 21.6994C103.074 21.3824 103.17 21.0064 103.17 20.5714ZM108.389 22.9334H109.33C109.285 22.6554 109.262 22.2804 109.262 21.8094V20.0734C109.262 18.7734 108.644 18.1234 107.412 18.1234C106.774 18.1234 106.233 18.2594 105.795 18.5304L106.008 19.2184C106.362 18.9864 106.772 18.8694 107.237 18.8694C107.89 18.8694 108.216 19.1794 108.216 19.8004V19.8884C107.343 19.8814 106.665 20.0304 106.183 20.3344C105.7 20.6384 105.46 21.0774 105.46 21.6534C105.46 22.0344 105.583 22.3554 105.829 22.6134C106.1 22.8974 106.46 23.0404 106.905 23.0404C107.501 23.0404 107.96 22.8234 108.282 22.3904H108.311L108.389 22.9334ZM108.242 21.3134V20.5864C107.086 20.5664 106.508 20.8834 106.508 21.5364C106.508 21.7824 106.574 21.9664 106.709 22.0894C106.844 22.2124 107.016 22.2734 107.221 22.2734C107.451 22.2734 107.666 22.2004 107.862 22.0554C108.059 21.9094 108.18 21.7244 108.225 21.4974C108.236 21.4464 108.242 21.3844 108.242 21.3134ZM114.355 22.9334H115.285C115.26 22.5454 115.248 22.1224 115.248 21.6634V16.0564H114.199V18.7624H114.179C113.927 18.3354 113.484 18.1224 112.851 18.1224C112.275 18.1224 111.791 18.3424 111.396 18.7824C110.988 19.2544 110.785 19.8724 110.785 20.6354C110.785 21.3464 110.972 21.9254 111.347 22.3714C111.722 22.8174 112.195 23.0404 112.763 23.0404C113.474 23.0404 113.98 22.7524 114.277 22.1764H114.306L114.355 22.9334ZM114.199 20.9454V20.1594C114.199 20.0234 114.189 19.9134 114.17 19.8294C114.111 19.5774 113.984 19.3654 113.791 19.1944C113.596 19.0234 113.361 18.9374 113.09 18.9374C112.699 18.9374 112.393 19.0924 112.168 19.4034C111.945 19.7144 111.832 20.1114 111.832 20.5964C111.832 21.0624 111.939 21.4404 112.154 21.7314C112.381 22.0414 112.687 22.1964 113.07 22.1964C113.414 22.1964 113.689 22.0674 113.898 21.8084C114.1 21.5694 114.199 21.2814 114.199 20.9454ZM123.627 22.3224C124.041 21.8564 124.248 21.2624 124.248 20.5374C124.248 19.8334 124.047 19.2574 123.647 18.8114C123.227 18.3524 122.67 18.1234 121.979 18.1234C121.26 18.1234 120.69 18.3564 120.266 18.8214C119.842 19.2864 119.631 19.8854 119.631 20.6154C119.631 21.3134 119.836 21.8924 120.246 22.3514C120.658 22.8114 121.209 23.0404 121.9 23.0404C122.619 23.0404 123.193 22.8014 123.627 22.3224ZM123.162 20.5714C123.162 20.1364 123.068 19.7634 122.881 19.4524C122.66 19.0764 122.348 18.8884 121.94 18.8884C121.52 18.8884 121.2 19.0764 120.979 19.4524C120.791 19.7634 120.698 20.1424 120.698 20.5904C120.698 21.0254 120.792 21.3984 120.979 21.7094C121.206 22.0854 121.522 22.2734 121.93 22.2734C122.33 22.2734 122.645 22.0824 122.871 21.6994C123.064 21.3824 123.162 21.0064 123.162 20.5714ZM128.836 22.9334H129.883V20.1094C129.883 19.4174 129.703 18.8964 129.34 18.5474C129.049 18.2624 128.683 18.1204 128.244 18.1204C127.895 18.1204 127.578 18.2094 127.293 18.3854C127.055 18.5364 126.873 18.7254 126.75 18.9544H126.721L126.672 18.2174H125.752C125.777 18.7034 125.789 19.1524 125.789 19.5664V22.9324H126.838V20.1364C126.838 19.8274 126.935 19.5574 127.129 19.3284C127.323 19.0994 127.574 18.9854 127.885 18.9854C128.52 18.9854 128.836 19.4014 128.836 20.2334V22.9334ZM136.935 19.0044H135.782V21.2944C135.782 21.8764 135.987 22.1674 136.393 22.1674C136.581 22.1674 136.737 22.1514 136.86 22.1184L136.887 22.9134C136.68 22.9914 136.408 23.0304 136.073 23.0304C135.659 23.0304 135.337 22.9044 135.104 22.6524C134.87 22.4004 134.754 21.9764 134.754 21.3814V19.0044H134.065V18.2194H134.754V17.3554L135.781 17.0454V18.2184H136.935V19.0044ZM141.435 22.9334H142.484V20.1304C142.484 19.4324 142.306 18.9044 141.951 18.5494C141.666 18.2644 141.307 18.1224 140.873 18.1224C140.26 18.1224 139.787 18.3804 139.457 18.8974H139.437V16.0564H138.39V22.9324H139.437V20.0974C139.437 19.9494 139.455 19.8234 139.486 19.7204C139.668 19.2304 140 18.9854 140.486 18.9854C141.119 18.9854 141.435 19.4084 141.435 20.2534V22.9334ZM148.207 20.3534C148.207 20.5414 148.193 20.6994 148.168 20.8284H145.025C145.039 21.2944 145.189 21.6494 145.48 21.8954C145.746 22.1154 146.089 22.2254 146.509 22.2254C146.974 22.2254 147.398 22.1514 147.78 22.0024L147.944 22.7304C147.497 22.9244 146.971 23.0214 146.362 23.0214C145.632 23.0214 145.057 22.8064 144.641 22.3764C144.223 21.9464 144.016 21.3694 144.016 20.6454C144.016 19.9344 144.209 19.3424 144.598 18.8704C145.004 18.3664 145.553 18.1144 146.246 18.1144C146.924 18.1144 147.439 18.3664 147.787 18.8704C148.068 19.2704 148.207 19.7654 148.207 20.3534ZM147.004 19.2774C147.146 19.5034 147.215 19.7714 147.207 20.0824H145.025C145.059 19.7654 145.162 19.4944 145.336 19.2674C145.549 18.9824 145.828 18.8404 146.17 18.8404C146.545 18.8404 146.822 18.9864 147.004 19.2774Z" fill="white"/>
<path d="M57.1281 29.2844C57.0991 26.0614 59.7671 24.4934 59.8891 24.4204C58.3781 22.2174 56.0361 21.9164 55.2131 21.8924C53.2461 21.6854 51.3381 23.0694 50.3361 23.0694C49.3141 23.0694 47.7711 21.9124 46.1081 21.9464C43.9681 21.9794 41.9661 23.2184 40.8681 25.1424C38.6021 29.0654 40.2921 34.8304 42.4631 38.0014C43.5491 39.5544 44.8181 41.2884 46.4791 41.2274C48.1041 41.1604 48.7111 40.1914 50.6721 40.1914C52.6151 40.1914 53.1851 41.2274 54.8791 41.1884C56.6231 41.1604 57.7211 39.6284 58.7691 38.0614C60.0241 36.2814 60.5281 34.5284 60.5481 34.4384C60.5071 34.4244 57.1611 33.1474 57.1281 29.2844Z" fill="white"/>
<path d="M53.928 19.8065C54.802 18.7135 55.4 17.2265 55.234 15.7175C53.969 15.7735 52.387 16.5925 51.476 17.6615C50.67 18.6035 49.95 20.1475 50.136 21.5995C51.557 21.7055 53.016 20.8825 53.928 19.8065Z" fill="white"/>
</g>
<defs>
<linearGradient id="paint0_linear_70_4365" x1="202.4" y1="7.75051" x2="-11.518" y2="140.893" gradientUnits="userSpaceOnUse">
<stop stop-color="#DF0024"/>
<stop offset="1" stop-color="#FF3858"/>
</linearGradient>
<clipPath id="clip0_70_4365">
<rect width="111" height="30" fill="white" transform="translate(39 15.5005)"/>
</clipPath>
</defs>
</svg>
