<svg width="24" height="25" viewBox="0 0 24 25" fill="none" xmlns="http://www.w3.org/2000/svg">
<g id="vuesax/bold/calendar-2">
<g id="calendar-2">
<path id="Vector" d="M16.2502 4.06V4.51584L16.7041 4.55787C17.9609 4.67424 18.8398 5.10009 19.4288 5.72534C20.0189 6.3518 20.3661 7.22969 20.461 8.33991C20.4606 8.34 20.4604 8.34 20.4602 8.34H20.4602H3.54185C3.54122 8.33968 3.54042 8.33919 3.5396 8.33853C3.6346 7.22896 3.98181 6.35155 4.57168 5.72534C5.16066 5.10009 6.03955 4.67424 7.29633 4.55787L7.75023 4.51584V4.06V2.5C7.75023 2.36614 7.86637 2.25 8.00023 2.25C8.13409 2.25 8.25023 2.36614 8.25023 2.5V4V4.5H8.75023H15.2502H15.7502V4V2.5C15.7502 2.36614 15.8664 2.25 16.0002 2.25C16.1341 2.25 16.2502 2.36614 16.2502 2.5V4.06Z" fill="#4D4D4D" stroke="#4D4D4D"/>
<path id="Vector_2" d="M9.54448 19.0815L9.55928 19.0682L9.57298 19.0537C9.83498 18.7772 10 18.3962 10 17.9998C10 17.6035 9.83498 17.2225 9.57298 16.946L9.55928 16.9315L9.54448 16.9182C9.40399 16.7918 9.24625 16.6908 9.07231 16.6183C8.70923 16.467 8.29077 16.467 7.92769 16.6183C7.75375 16.6908 7.59601 16.7918 7.45552 16.9182L7.44072 16.9315L7.42702 16.946C7.16502 17.2225 7 17.6035 7 17.9998C7 18.3962 7.16502 18.7772 7.42702 19.0537L7.44072 19.0682L7.45552 19.0815C7.59601 19.2079 7.75375 19.3089 7.92769 19.3814C8.09884 19.4527 8.29415 19.4998 8.5 19.4998C8.70585 19.4998 8.90116 19.4527 9.07231 19.3814C9.24625 19.3089 9.40399 19.2079 9.54448 19.0815ZM9.54448 15.5815L9.56404 15.5639L9.58165 15.5443C9.70809 15.4038 9.80906 15.2461 9.88154 15.0722C9.95285 14.901 10 14.7057 10 14.4998C10 14.294 9.95285 14.0987 9.88154 13.9275C9.80906 13.7536 9.70809 13.5959 9.58165 13.4554L9.56404 13.4358L9.54448 13.4182C9.40399 13.2918 9.24625 13.1908 9.07231 13.1183C8.70923 12.967 8.29077 12.967 7.92769 13.1183C7.75375 13.1908 7.59601 13.2918 7.45552 13.4182L7.43596 13.4358L7.41835 13.4554C7.29191 13.5959 7.19094 13.7536 7.11846 13.9275C7.04715 14.0987 7 14.294 7 14.4998C7 14.7057 7.04715 14.901 7.11846 15.0722C7.19094 15.2461 7.29191 15.4038 7.41835 15.5443L7.43596 15.5639L7.45552 15.5815C7.59601 15.7079 7.75375 15.8089 7.92769 15.8814C8.09884 15.9527 8.29415 15.9998 8.5 15.9998C8.70585 15.9998 8.90116 15.9527 9.07231 15.8814C9.24625 15.8089 9.40399 15.7079 9.54448 15.5815ZM13.0445 15.5815L13.0593 15.5682L13.073 15.5537C13.335 15.2772 13.5 14.8962 13.5 14.4998C13.5 14.1035 13.335 13.7225 13.073 13.446L13.0593 13.4315L13.0445 13.4182C12.9061 13.2937 12.751 13.1938 12.5802 13.1216C12.2125 12.9559 11.7875 12.9559 11.4198 13.1216C11.249 13.1938 11.0939 13.2937 10.9555 13.4182L10.9407 13.4315L10.927 13.446C10.665 13.7225 10.5 14.1035 10.5 14.4998C10.5 14.8962 10.665 15.2772 10.927 15.5537L10.9407 15.5682L10.9555 15.5815C11.096 15.7079 11.2538 15.8089 11.4277 15.8814C11.5988 15.9527 11.7941 15.9998 12 15.9998C12.2059 15.9998 12.4012 15.9527 12.5723 15.8814C12.7462 15.8089 12.904 15.7079 13.0445 15.5815ZM4 10.8398H20C20.2739 10.8398 20.5 11.066 20.5 11.3398V17.4998C20.5 18.9232 20.1441 20.0329 19.4461 20.7846C18.7543 21.5296 17.6547 21.9998 16 21.9998H8C6.3453 21.9998 5.24565 21.5296 4.5539 20.7846C3.85591 20.0329 3.5 18.9232 3.5 17.4998V11.3398C3.5 11.066 3.72614 10.8398 4 10.8398Z" fill="#4D4D4D" stroke="#4D4D4D"/>
</g>
</g>
</svg>
