<svg width="32" height="33" viewBox="0 0 32 33" fill="none" xmlns="http://www.w3.org/2000/svg">
<path d="M29.2927 24.9401C29.2927 25.4201 29.186 25.9134 28.9593 26.3934C28.7327 26.8734 28.4394 27.3267 28.0527 27.7534C27.3994 28.4734 26.6793 28.9934 25.866 29.3267C25.066 29.6601 24.1994 29.8334 23.266 29.8334C21.906 29.8334 20.4527 29.5134 18.9193 28.8601C17.386 28.2067 15.8527 27.3267 14.3327 26.2201C12.7993 25.1001 11.346 23.8601 9.95935 22.4867C8.58602 21.1001 7.34602 19.6467 6.23935 18.1267C5.14602 16.6067 4.26602 15.0867 3.62602 13.5801C2.98602 12.0601 2.66602 10.6067 2.66602 9.22008C2.66602 8.31341 2.82602 7.44675 3.14602 6.64675C3.46602 5.83341 3.97268 5.08675 4.67935 4.42008C5.53268 3.58008 6.46602 3.16675 7.45268 3.16675C7.82602 3.16675 8.19935 3.24675 8.53268 3.40675C8.87935 3.56675 9.18602 3.80675 9.42602 4.15341L12.5193 8.51342C12.7593 8.84675 12.9327 9.15341 13.0527 9.44675C13.1727 9.72675 13.2393 10.0067 13.2393 10.2601C13.2393 10.5801 13.146 10.9001 12.9593 11.2067C12.786 11.5134 12.5327 11.8334 12.2127 12.1534L11.1993 13.2067C11.0527 13.3534 10.986 13.5267 10.986 13.7401C10.986 13.8467 10.9993 13.9401 11.026 14.0467C11.066 14.1534 11.106 14.2334 11.1327 14.3134C11.3727 14.7534 11.786 15.3267 12.3727 16.0201C12.9727 16.7134 13.6127 17.4201 14.306 18.1267C15.026 18.8334 15.7193 19.4867 16.426 20.0867C17.1193 20.6734 17.6927 21.0734 18.146 21.3134C18.2127 21.3401 18.2927 21.3801 18.386 21.4201C18.4927 21.4601 18.5993 21.4734 18.7193 21.4734C18.946 21.4734 19.1193 21.3934 19.266 21.2467L20.2793 20.2467C20.6127 19.9134 20.9327 19.6601 21.2393 19.5001C21.546 19.3134 21.8527 19.2201 22.186 19.2201C22.4393 19.2201 22.706 19.2734 22.9993 19.3934C23.2927 19.5134 23.5994 19.6867 23.9327 19.9134L28.346 23.0467C28.6927 23.2867 28.9327 23.5667 29.0793 23.9001C29.2127 24.2334 29.2927 24.5667 29.2927 24.9401Z" stroke="#C90020" stroke-width="1.5" stroke-miterlimit="10"/>
<path d="M24.6667 12.5002C24.6667 11.7002 24.04 10.4735 23.1067 9.4735C22.2533 8.5535 21.12 7.8335 20 7.8335" stroke="#C90020" stroke-width="1.5" stroke-linecap="round" stroke-linejoin="round"/>
<path d="M29.3333 12.5001C29.3333 7.34008 25.16 3.16675 20 3.16675" stroke="#C90020" stroke-width="1.5" stroke-linecap="round" stroke-linejoin="round"/>
</svg>
