<svg width="30" height="30" viewBox="0 0 30 30" fill="none" xmlns="http://www.w3.org/2000/svg">
<path d="M17.701 26.6055C20.7804 25.8072 23.4124 23.8098 25.0102 21.0581C26.6281 18.2895 27.0708 15.0583 26.2582 11.9575C25.4455 8.85673 23.4748 6.25803 20.7073 4.64033C17.9414 3.02228 14.7127 2.57825 11.612 3.39092C8.53106 4.18944 5.89759 6.18784 4.29878 8.94087C1.69434 13.3721 2.21257 18.9734 5.58591 22.8524L6.08316 26.7662C6.15025 27.2934 6.44078 27.7663 6.88062 28.0644C7.3914 28.4112 8.04161 28.4793 8.613 28.2462L12.2656 26.76C14.0657 27.1226 15.9246 27.0697 17.701 26.6055Z" fill="#EE3039"/>
<path d="M13.0082 18.7732C12.6077 18.6683 12.3682 18.2584 12.4732 17.8577C12.8014 16.6056 13.6748 15.5382 14.8082 15.0041C14.9991 14.9146 15.2019 14.8266 15.4062 14.739C15.9968 14.4845 16.6079 14.2228 16.9902 13.8345C17.5182 13.2983 17.6493 12.3604 17.3013 11.6009C16.8617 10.6406 15.7366 10.2557 15.2725 10.1341C12.633 9.44232 11.9623 11.5398 11.8944 11.781C11.7826 12.1781 11.3413 12.354 10.9746 12.3044C10.5769 12.1975 10.3408 11.7888 10.4468 11.3907C10.7965 10.0744 12.3355 7.81541 15.6523 8.68472C17.0693 9.05609 18.1664 9.89094 18.6645 10.9767C19.2723 12.3005 19.024 13.9101 18.0592 14.8885C17.4721 15.485 16.6896 15.8212 15.9993 16.1193C15.8135 16.1954 15.6296 16.2759 15.4477 16.3609C14.6897 16.7334 14.1327 17.4193 13.9235 18.2378C13.873 18.4302 13.7483 18.5948 13.5766 18.6952C13.4051 18.7955 13.2006 18.8236 13.0082 18.7732Z" fill="white"/>
<path d="M15.4268 20.6809C15.3781 20.9884 15.5231 21.2945 15.7918 21.4517C16.0606 21.609 16.3982 21.5852 16.6422 21.3919C16.7918 21.2789 16.89 21.1108 16.9151 20.925C16.9637 20.6174 16.8188 20.3113 16.5501 20.1541C16.2813 19.9969 15.9436 20.0207 15.6996 20.2139C15.5518 20.324 15.449 20.4998 15.4268 20.6809Z" fill="white"/>
</svg>
