<svg width="134" height="48" viewBox="0 0 134 48" fill="none" xmlns="http://www.w3.org/2000/svg">
<g clip-path="url(#clip0_46_3203)">
<path d="M15.135 6H0.5V41L15.135 6Z" fill="#FA0C00"/>
<path d="M25.4316 6H40.0476V41L25.4316 6Z" fill="#FA0C00"/>
<path d="M20.2842 18.8998L29.5991 41H23.4876L20.7037 33.9638H13.8867L20.2842 18.8998Z" fill="#FA0C00"/>
<path d="M63.9236 28.2578L65.6493 33.206C65.7065 33.33 65.7923 33.3872 65.9448 33.3872H69.2627C69.4439 33.3872 69.4725 33.3014 69.4439 33.1202L62.5888 14.0804C62.5602 13.9279 62.5316 13.8993 62.379 13.8993H58.2603C58.1459 13.8993 58.0791 13.9851 58.0791 14.109C58.0219 15.1101 57.9361 15.4152 57.8122 15.7108L51.7007 33.0916C51.6721 33.3014 51.7389 33.3872 51.9105 33.3872H54.8756C55.0568 33.3872 55.1426 33.33 55.2093 33.1488L56.8397 28.2578H63.9236ZM57.7836 25.0257C58.6798 22.318 59.862 18.8475 60.3387 16.8644H60.3673C60.9584 18.9429 62.3504 23.0616 62.9797 25.0257H57.7836Z" fill="#FA0C00"/>
<path d="M78.2572 33.6827C80.0401 33.6827 81.9374 33.3585 83.8633 32.5291C84.0158 32.4719 84.0444 32.4051 84.0444 32.2621C83.9872 31.7282 83.9205 30.9559 83.9205 30.3648V12.4405C83.9205 12.3261 83.9205 12.2689 83.7775 12.2689H80.5454C80.4215 12.2689 80.3643 12.3261 80.3643 12.4787V18.552C79.8589 18.4947 79.5062 18.4661 79.0867 18.4661C73.8715 18.4661 70.668 21.908 70.668 26.2079C70.668 31.1943 73.9573 33.6827 78.2572 33.6827ZM80.3642 30.3648C79.8303 30.5364 79.2392 30.6032 78.6386 30.6032C76.2741 30.6032 74.3386 29.2684 74.3386 26.0268C74.3386 23.157 76.3313 21.4599 78.9723 21.4599C79.5062 21.4599 79.9733 21.5171 80.3642 21.6696V30.3648Z" fill="#FA0C00"/>
<path d="M94.3553 18.4661C89.9028 18.4661 87.1475 21.8794 87.1475 26.0935C87.1475 29.8595 89.3403 33.6827 94.2886 33.6827C98.4741 33.6827 101.411 30.6031 101.411 25.9981C101.411 21.9366 98.9222 18.4661 94.3553 18.4661ZM94.1742 21.4599C96.6912 21.4599 97.759 23.6241 97.759 26.0935C97.759 29.1444 96.1859 30.6604 94.3553 30.6604C92.0957 30.6604 90.7609 28.7631 90.7609 26.0267C90.7609 23.2142 92.1815 21.4599 94.1742 21.4599Z" fill="#FA0C00"/>
<path d="M104.752 12.2689C104.628 12.2689 104.542 12.3261 104.542 12.4787V32.7674C104.542 32.8532 104.628 33.0058 104.752 33.0344C106.172 33.4729 107.66 33.6827 109.195 33.6827C113.59 33.6827 117.861 30.9559 117.861 25.4642C117.861 21.4885 115.134 18.4661 110.863 18.4661C109.881 18.4661 108.966 18.6187 108.165 18.8856L108.127 12.5073C108.127 12.2975 108.07 12.2689 107.86 12.2689H104.752ZM114.21 25.8265C114.21 29.1158 111.96 30.6604 109.528 30.6604C109.023 30.6604 108.575 30.6318 108.165 30.5078V21.8508C108.632 21.6696 109.195 21.5171 110.234 21.5171C112.579 21.5171 114.21 23.0044 114.21 25.8265Z" fill="#FA0C00"/>
<path d="M129.923 26.8943C131.372 26.8943 132.564 26.8657 132.974 26.7704C133.127 26.7418 133.184 26.6846 133.213 26.5607C133.298 26.2365 133.336 25.5596 133.336 24.7301C133.336 21.908 131.639 18.4661 127.254 18.4661C122.773 18.4661 120.284 22.1177 120.284 26.2365C120.284 29.8881 122.21 33.6827 127.606 33.6827C129.628 33.6827 130.934 33.3585 132.059 32.8246C132.173 32.7674 132.23 32.6721 132.23 32.5005V30.0311C132.23 29.8881 132.145 29.8595 132.059 29.9167C130.934 30.3934 129.713 30.6318 128.379 30.6318C125.356 30.6318 123.983 28.9633 123.898 26.8943H129.923ZM123.898 24.3392C124.136 22.89 125.051 21.3168 127.101 21.3168C129.361 21.3168 129.952 23.2142 129.952 24.0722C129.952 24.1008 129.952 24.2248 129.952 24.3106C129.828 24.3392 129.447 24.3392 128.321 24.3392H123.898Z" fill="#FA0C00"/>
</g>
<defs>
<clipPath id="clip0_46_3203">
<rect width="133" height="48" fill="white" transform="translate(0.5)"/>
</clipPath>
</defs>
</svg>
