<svg width="179" height="48" viewBox="0 0 179 48" fill="none" xmlns="http://www.w3.org/2000/svg">
<g clip-path="url(#clip0_46_3215)">
<path d="M6.94734 22.0334C6.88275 21.9489 6.79744 21.8825 6.69966 21.8406C6.60188 21.7986 6.49495 21.7827 6.38918 21.7941C6.28342 21.8056 6.18241 21.8442 6.09592 21.9062C6.00943 21.9681 5.94038 22.0513 5.89544 22.1477L0.565292 32.8047C0.516735 32.9018 0.493809 33.0097 0.498691 33.1182C0.503573 33.2267 0.5361 33.3321 0.593184 33.4245C0.650269 33.5169 0.730016 33.5931 0.824854 33.646C0.919692 33.6989 1.02647 33.7266 1.13506 33.7267H8.55702C8.67589 33.7294 8.79301 33.6976 8.89415 33.6351C8.99529 33.5726 9.07611 33.482 9.12678 33.3745C10.7278 30.0662 9.75753 25.0359 6.94734 22.0334Z" fill="url(#paint0_linear_46_3215)"/>
<path d="M10.8574 12.3404C9.52928 14.384 8.75531 16.7377 8.61143 19.1707C8.46756 21.6036 8.95873 24.0322 10.0367 26.2181L13.6149 33.3745C13.6678 33.4803 13.7492 33.5693 13.8498 33.6315C13.9504 33.6937 14.0664 33.7266 14.1847 33.7267H21.6053C21.7139 33.7266 21.8207 33.6989 21.9155 33.646C22.0104 33.5931 22.0901 33.5169 22.1472 33.4245C22.2043 33.3321 22.2368 33.2267 22.2417 33.1182C22.2466 33.0097 22.2237 32.9018 22.1751 32.8047C22.1751 32.8047 12.1919 12.8359 11.941 12.3364C11.8914 12.2347 11.8141 12.1491 11.718 12.0894C11.622 12.0296 11.5111 11.9981 11.3979 11.9985C11.2848 11.999 11.1741 12.0313 11.0785 12.0917C10.9829 12.1522 10.9063 12.2384 10.8574 12.3404Z" fill="#2684FF"/>
<path d="M97.8971 20.8852C97.8971 23.5241 99.1212 25.6192 103.91 26.5442C106.766 27.144 107.365 27.6051 107.365 28.5574C107.365 29.4823 106.765 30.0811 104.753 30.0811C102.321 30.0374 99.9376 29.3924 97.8154 28.2039V32.5021C99.2575 33.2095 101.162 33.9985 104.699 33.9985C109.705 33.9985 111.691 31.7661 111.691 28.4484L97.8971 20.8852ZM111.691 28.4484C111.691 25.3197 110.031 23.8503 105.352 22.8441C102.767 22.2726 102.141 21.7015 102.141 20.8852C102.141 19.8523 103.066 19.4161 104.78 19.4161C106.848 19.4161 108.889 20.0419 110.82 20.9125V16.8042C108.968 15.9612 106.951 15.5429 104.916 15.58C100.291 15.58 97.8971 17.5932 97.8971 20.8852" fill="#0052CC"/>
<path d="M162.21 15.8521V33.7267H166.019V20.0963L167.624 23.7145L173.011 33.7267H177.799V15.8521H173.99V27.3877L172.548 24.041L168.223 15.8521H162.21Z" fill="#0052CC"/>
<path d="M137.985 15.8521H133.822V33.7267H137.985V15.8521Z" fill="#0052CC"/>
<path d="M129.02 28.4483C129.02 25.3196 127.36 23.8502 122.681 22.8439C120.096 22.2725 119.47 21.7014 119.47 20.8851C119.47 19.8522 120.395 19.416 122.109 19.416C124.177 19.416 126.218 20.0417 128.149 20.9124V16.8041C126.297 15.9611 124.28 15.5428 122.245 15.5799C117.62 15.5799 115.226 17.5931 115.226 20.8851C115.226 23.524 116.45 25.6191 121.239 26.5441C124.096 27.1438 124.694 27.605 124.694 28.5573C124.694 29.4822 124.094 30.081 122.082 30.081C119.65 30.0372 117.267 29.3923 115.145 28.2037V32.502C116.587 33.2093 118.491 33.9984 122.028 33.9984C127.034 33.9984 129.02 31.7659 129.02 28.4483Z" fill="#0052CC"/>
<path d="M65.5605 15.8521V33.7267H74.1164L75.4635 29.8633H69.7502V15.8521H65.5605Z" fill="#0052CC"/>
<path d="M48.6572 15.8521V19.7151H53.2823V33.7267H57.472V19.7151H62.4236V15.8521H48.6572Z" fill="#0052CC"/>
<path d="M42.5813 15.8521H37.0905L30.8574 33.7267H35.6175L36.5011 30.7163C38.6774 31.3553 40.9915 31.3553 43.1677 30.7163L44.0514 33.7267H48.8124L42.5813 15.8521ZM39.8357 27.4929C39.0604 27.4929 38.289 27.3819 37.545 27.1634L39.8357 19.3629L42.1265 27.1661C41.3824 27.3837 40.611 27.4938 39.8357 27.4929Z" fill="#0052CC"/>
<path d="M88.8661 15.8521H83.3757L77.1426 33.7267H81.9036L82.7873 30.7163C84.9635 31.3553 87.2776 31.3553 89.4539 30.7163L90.3375 33.7267H95.0986L88.8661 15.8521ZM86.1209 27.4929C85.3455 27.4929 84.5741 27.3819 83.8302 27.1634L86.1209 19.3629L88.4116 27.1661C87.6675 27.3837 86.8962 27.4938 86.1209 27.4929Z" fill="#0052CC"/>
<path d="M152.985 15.8521H147.495L141.262 33.7267H146.023L146.906 30.7163C149.083 31.3553 151.397 31.3553 153.573 30.7163L154.457 33.7267H159.218L152.985 15.8521ZM150.238 27.4929C149.463 27.4929 148.692 27.3819 147.948 27.1634L150.238 19.3629L152.529 27.1661C151.785 27.3837 151.014 27.4938 150.238 27.4929Z" fill="#0052CC"/>
</g>
<defs>
<linearGradient id="paint0_linear_46_3215" x1="9.86848" y1="23.6781" x2="4.24345" y2="33.4211" gradientUnits="userSpaceOnUse">
<stop stop-color="#0052CC"/>
<stop offset="0.923" stop-color="#2684FF"/>
</linearGradient>
<clipPath id="clip0_46_3215">
<rect width="178" height="48" fill="white" transform="translate(0.5)"/>
</clipPath>
</defs>
</svg>
