<svg width="124" height="48" viewBox="0 0 124 48" fill="none" xmlns="http://www.w3.org/2000/svg">
<g clip-path="url(#clip0_46_3227)">
<path d="M39.2687 21.2385H27.606C26.9377 21.2385 26.4364 21.9235 26.6703 22.5585L29.4774 29.8267C29.6111 30.1442 29.3437 30.4951 29.0095 30.4784L25.4005 30.2445C25.2501 30.2278 25.083 30.3113 24.9828 30.445L22.1924 34.4049C22.042 34.6221 21.7413 34.7057 21.5074 34.5553L17.397 31.7482C17.2466 31.6313 17.0127 31.6313 16.8624 31.7482L11.148 35.6246C10.7804 35.8753 10.2958 35.5244 10.4128 35.1067L12.0001 29.409C12.067 29.1751 11.95 28.9245 11.7161 28.8409L8.69181 27.6045C8.39106 27.4708 8.29081 27.1199 8.50802 26.8526L11.1981 23.5443C11.3318 23.3772 11.3485 23.1433 11.2148 22.9762L8.92574 19.718C8.72523 19.4172 8.90903 18.9995 9.29333 18.9661L12.7854 18.6988C13.0361 18.6821 13.2533 18.4649 13.2366 18.1975L12.9692 13.3019C12.9525 12.951 13.3034 12.7004 13.6376 12.834L17.9651 14.6219C18.1489 14.7054 18.3828 14.6553 18.4998 14.4882L21.4906 11.1632C21.7246 10.8958 22.159 10.9794 22.2927 11.2968L24.0805 15.9084C24.3144 16.4765 25.0329 16.6937 25.5341 16.3094L32.5518 11.0796C33.3538 10.4948 32.8358 9.22496 31.85 9.35863L27.2384 9.97685C27.0212 10.0103 26.804 9.8766 26.7372 9.6761L24.3144 3.44377C24.0471 2.79213 23.1949 2.64175 22.7271 3.15972L17.4472 8.89079C17.2968 9.04117 17.0963 9.07459 16.9125 9.00775L9.94496 6.06703C9.32674 5.8164 8.64169 6.23411 8.60827 6.91917L8.35764 14.0872C8.34093 14.3378 8.15714 14.5383 7.90651 14.555L1.55722 14.9727C0.805326 15.0229 0.421027 15.8583 0.822035 16.4598L5.04933 22.6754C5.183 22.8425 5.16629 23.0932 5.01591 23.2602L0.738492 28.1893C0.304066 28.6738 0.487862 29.4424 1.08937 29.6931L6.01843 31.8151C6.23564 31.9153 6.3526 32.1492 6.28577 32.3665L3.14454 44.6473C2.92733 45.5162 3.91314 46.1845 4.63161 45.6666L16.4446 37.1953C16.595 37.0783 16.8289 37.0616 16.996 37.1953L22.3762 40.9714C22.8273 41.2889 23.4289 41.1552 23.7296 40.7208L27.0881 35.5578C27.1883 35.4074 27.3721 35.3239 27.5559 35.3573L35.6095 36.3264C36.2611 36.4267 36.9127 35.8753 36.6788 35.2738L33.3371 26.602C33.2368 26.368 33.3371 26.1174 33.6211 25.967L39.7365 23.0764C40.6221 22.6253 40.3046 21.2385 39.2687 21.2385Z" fill="#8039E9"/>
<path d="M122.962 21.2552H113.906C113.739 21.2552 113.572 21.4056 113.572 21.5894V25.5995C113.572 25.7666 113.723 25.9337 113.906 25.9337H117.783C117.967 25.9337 118.117 26.084 118.117 26.2678C118.083 28.323 117.649 32.049 113.906 32.049C110.849 32.049 109.612 28.3564 109.612 24.0122C109.612 18.8659 110.882 15.6912 113.723 15.6912C115.794 15.6912 116.463 17.4457 116.663 18.0806C116.713 18.231 116.83 18.3145 116.981 18.3145H121.693C121.876 18.3145 122.043 18.1474 122.027 17.9636C121.843 15.3905 119.637 10.8792 113.823 10.8792C109.763 10.8792 105.953 13.352 104.733 19.4674V11.5976C104.733 11.4974 104.65 11.4305 104.566 11.4305H99.587C99.4867 11.4305 99.4199 11.5141 99.4199 11.5976V25.6663C99.4199 25.8334 99.186 25.8835 99.1024 25.7332L92.5694 11.5308C92.5359 11.464 92.4858 11.4305 92.419 11.4305H88.0079C87.9076 11.4305 87.8408 11.5141 87.8408 11.5976V19.4841C86.2034 14.4882 81.7589 10.8959 75.9777 10.8959C69.5281 10.8959 64.7494 15.3571 63.6634 21.2719H54.6407C54.5404 21.2719 54.4903 21.3555 54.4903 21.439V25.7833C54.4903 25.8835 54.5739 25.9504 54.6407 25.9504H58.8513C58.9515 25.9504 59.0017 26.0339 59.0017 26.1007C58.9849 28.1225 58.6341 32.0323 54.7744 32.0323C51.7167 32.0323 50.497 28.3397 50.497 23.9955C50.497 18.8492 51.7668 15.6745 54.6073 15.6745C56.7961 15.6745 57.431 17.6629 57.5814 18.1808C57.5981 18.2644 57.665 18.3145 57.7318 18.3145H62.7444C62.8446 18.3145 62.9115 18.231 62.8948 18.1474C62.7945 15.6077 60.6224 10.8959 54.6741 10.8959C49.7451 10.8959 45.1836 14.5551 45.1836 23.962C45.1836 30.445 47.7233 36.8277 54.7577 36.8277C59.9708 36.8277 63.2958 32.8009 64.031 27.9554C65.6016 33.1184 70.0962 36.8277 75.9777 36.8277C81.6586 36.8277 86.1866 33.2186 87.8408 28.1893V36.1594C87.8408 36.2596 87.9243 36.3264 88.0079 36.3264H92.9871C93.0873 36.3264 93.1542 36.2429 93.1542 36.1594V22.3246C93.1542 22.1575 93.3881 22.1074 93.4716 22.2577L100.005 36.2429C100.038 36.3097 100.088 36.3431 100.155 36.3431H104.566C104.666 36.3431 104.733 36.2596 104.733 36.1928V28.2896C105.702 33.0348 108.443 36.8778 113.89 36.8778C119.821 36.8778 123.313 31.648 123.313 25.9337V21.6562C123.297 21.3889 123.146 21.2552 122.962 21.2552ZM75.9609 31.6313C71.7671 31.6313 68.8598 28.4065 68.8598 23.8618C68.8598 19.3003 71.7671 16.0923 75.9609 16.0923C80.1381 16.0923 83.0621 19.317 83.0621 23.8618C83.0621 28.4065 80.1381 31.6313 75.9609 31.6313Z" fill="#3E0075"/>
</g>
<defs>
<clipPath id="clip0_46_3227">
<rect width="123" height="48" fill="white" transform="translate(0.5)"/>
</clipPath>
</defs>
</svg>
