<svg width="133" height="48" viewBox="0 0 133 48" fill="none" xmlns="http://www.w3.org/2000/svg">
<g clip-path="url(#clip0_46_3198)">
<path d="M22.3949 37.9727L13.7914 37.8153C11.0057 37.7605 8.21314 37.87 5.4822 37.3019C1.32761 36.4532 1.0333 32.2918 0.725299 28.8011C0.300943 23.8936 0.46521 18.8971 1.26601 14.0307C1.71775 11.2998 3.49731 9.6708 6.24878 9.49285C15.5367 8.84947 24.8863 8.92475 34.1537 9.22591C35.1324 9.25329 36.118 9.40387 37.0831 9.57498C41.8468 10.41 41.9632 15.1258 42.2712 19.0956C42.5792 23.1065 42.4491 27.1379 41.8605 31.1214C41.3883 34.4204 40.4848 37.1856 36.6724 37.4525C31.895 37.8016 27.2271 38.0822 22.4359 37.9932C22.4359 37.9727 22.4086 37.9727 22.3949 37.9727ZM17.3368 29.6224C20.937 27.5554 24.4687 25.5226 28.0484 23.4692C24.4414 21.4022 20.9165 19.3694 17.3368 17.3161V29.6224Z" fill="#FF0000"/>
<path d="M111.504 34.2216C111.339 34.8923 111.196 35.4194 111.052 35.9806H107.684V10.0059H111.613V19.5881C111.819 19.328 111.921 19.2185 112.01 19.1022C112.681 18.1782 113.55 17.5758 114.673 17.3431C116.459 16.9941 117.985 17.7812 118.526 19.4991C118.875 20.5669 119.101 21.7099 119.128 22.8255C119.183 25.6934 119.142 28.5544 119.039 31.4222C118.998 32.2983 118.731 33.1949 118.396 34.0162C117.294 36.7266 113.694 37.1373 111.908 34.7897C111.798 34.6459 111.695 34.4885 111.504 34.2216ZM111.695 31.826C111.695 32.5994 112.106 33.0717 112.879 33.2497C113.639 33.4276 114.255 33.1333 114.563 32.4283C114.693 32.134 114.823 31.826 114.83 31.518C114.905 28.616 114.974 25.7139 114.994 22.805C114.994 22.2643 114.864 21.703 114.7 21.176C114.392 20.2246 113.543 19.944 112.708 20.4984C112.079 20.9228 111.695 21.5251 111.695 22.3259V31.826ZM101.018 17.7127H105.131V35.9943H101.921C101.805 35.303 101.689 34.5912 101.552 33.7561C101.333 34.0778 101.203 34.2832 101.066 34.4885C99.9981 36.0285 98.4855 36.5555 96.6991 36.2749C95.1728 36.0285 94.2556 34.8513 94.0503 32.9211C93.9887 32.3462 93.9613 31.7644 93.9613 31.1895C93.9476 26.9117 93.9613 22.6202 93.9613 18.3424V17.699H98.1228V18.4451C98.1228 22.5791 98.1091 26.7064 98.1364 30.8404C98.1364 31.429 98.198 32.0382 98.3007 32.6268C98.4171 33.2291 98.8551 33.4481 99.4437 33.4071C100.395 33.3318 101.052 32.6268 101.052 31.6823V18.5204C101.018 18.2534 101.018 18.007 101.018 17.7127ZM72.6956 17.699H76.8296V18.4725C76.8296 22.586 76.8159 26.6927 76.8433 30.7925C76.8433 31.3811 76.8981 31.9903 77.0213 32.5652C77.1787 33.2428 77.5757 33.4618 78.2533 33.3729C79.191 33.2428 79.759 32.5926 79.7659 31.6412V17.7264H83.8794V35.9943H80.683C80.5667 35.3167 80.4503 34.6186 80.2998 33.7356C80.0944 34.0436 79.9781 34.2216 79.8617 34.4064C78.794 35.9738 77.295 36.5487 75.4676 36.2681C74.0029 36.049 73.1062 34.9676 72.8324 33.1949C72.7572 32.6405 72.7024 32.0929 72.7024 31.5385C72.6887 27.0965 72.6887 22.6339 72.6887 18.1918L72.6956 17.699ZM70.5738 27.4592C70.5601 28.0752 70.519 28.6912 70.4848 29.3072C70.3274 31.1553 70.2521 33.7767 68.76 35.125C67.8086 35.9738 66.604 36.2818 65.3583 36.3228C64.8039 36.3365 64.2426 36.3365 63.6882 36.2612C61.0668 35.8642 59.8485 34.7075 59.4104 31.826C58.9108 28.4996 58.8697 25.1184 59.4652 21.792C60.0812 18.3493 62.203 17.1309 65.502 17.3568C68.582 17.5758 69.9578 19.595 70.3205 22.4696C70.519 24.1191 70.6148 25.7892 70.5738 27.4592ZM66.385 26.8296C66.385 25.6591 66.4123 24.4819 66.3713 23.3115C66.3439 22.6339 66.2549 21.9494 66.1112 21.2787C65.9469 20.5053 65.4541 20.1357 64.8381 20.1494C64.2358 20.163 63.8114 20.5326 63.5924 21.2513C63.5171 21.5182 63.435 21.792 63.435 22.059C63.435 23.8933 63.4213 25.7344 63.4076 27.5688C63.3939 29.2799 63.1749 31.0731 63.7156 32.7089C63.8799 33.2086 64.3042 33.4824 64.8586 33.4824C65.3994 33.4824 65.7553 33.2154 65.9538 32.7363C66.1112 32.3667 66.2481 31.9629 66.2481 31.5659C66.296 29.9917 66.385 28.4106 66.385 26.8296ZM53.3736 23.3868C53.7364 21.6141 54.0786 19.8824 54.4551 18.1439C54.9273 15.9332 55.4543 13.7224 55.9198 11.5048C56.0361 10.9641 56.2551 10.834 56.7685 10.8477C57.8704 10.8888 58.9929 10.8614 60.1702 10.8614C59.7869 12.2714 59.4104 13.6129 59.0408 14.9339C57.8704 19.0816 56.7 23.2431 55.5433 27.4045C55.4543 27.7262 55.4133 28.0752 55.4133 28.4175C55.3996 30.6898 55.4133 32.9553 55.4133 35.2277V35.9669H51.3956C51.3819 35.7616 51.3545 35.5562 51.3545 35.3509C51.3545 34.0641 51.2518 32.7705 51.3682 31.4975C51.6625 28.438 50.6906 25.6249 49.9035 22.7776C48.8631 19.0132 47.8091 15.235 46.7687 11.4706C46.714 11.2926 46.6934 11.101 46.6387 10.882H50.7385C51.6009 15.0365 52.4702 19.1911 53.3736 23.3868ZM131.982 28.1574H125.056C125.131 29.5468 125.158 30.8678 125.302 32.1751C125.405 33.0854 125.904 33.4755 126.692 33.4824C127.513 33.4961 127.992 33.0854 128.184 32.1819C128.245 31.8876 128.286 31.5933 128.314 31.2921C128.341 31.0252 128.355 30.7377 128.375 30.3545C129.546 30.416 130.689 30.4845 131.818 30.5324C132.475 32.4831 131.291 34.9882 129.299 35.7616C127.732 36.3776 126.123 36.3776 124.522 35.9053C123.338 35.5562 122.455 34.8034 122.058 33.6466C121.688 32.5652 121.339 31.4359 121.264 30.3065C121.059 27.5208 120.983 24.7078 121.408 21.9152C121.483 21.4498 121.613 21.0049 121.757 20.5532C122.332 18.6915 123.584 17.5485 125.521 17.3568C126.575 17.2541 127.663 17.2952 128.704 17.4732C130.388 17.7675 131.284 18.979 131.674 20.5669C131.852 21.3129 131.982 22.0795 132.01 22.8392C132.017 24.5846 131.982 26.3162 131.982 28.1574ZM128.047 25.755C128.047 24.3792 128.06 23.0856 128.033 21.7852C128.033 21.4772 127.917 21.1555 127.8 20.8612C127.568 20.2862 127.082 20.1288 126.5 20.1288C125.918 20.1288 125.549 20.4231 125.405 20.9502C124.967 22.5312 125.11 24.1465 125.124 25.7687C126.171 25.755 127.123 25.755 128.047 25.755Z" fill="#282828"/>
<path d="M87.0551 14.2152H82.9827V10.9161H95.1384V14.1946H91.0934V35.9669H87.062L87.0551 14.2152Z" fill="#282828"/>
</g>
<defs>
<clipPath id="clip0_46_3198">
<rect width="132" height="48" fill="white" transform="translate(0.5)"/>
</clipPath>
</defs>
</svg>
