<svg width="19" height="20" viewBox="0 0 19 20" fill="none" xmlns="http://www.w3.org/2000/svg">
<path d="M12.0001 8.25V14.25M7.50012 8.25V14.25M17.9998 3.75L1.49976 3.75001M16.5001 3.75V18C16.5001 18.1989 16.4211 18.3897 16.2805 18.5303C16.1398 18.671 15.949 18.75 15.7501 18.75H3.75012C3.55121 18.75 3.36044 18.671 3.21979 18.5303C3.07914 18.3897 3.00012 18.1989 3.00012 18V3.75M13.5001 3.75V2.25C13.5001 1.85218 13.3421 1.47064 13.0608 1.18934C12.7795 0.908035 12.3979 0.75 12.0001 0.75H7.50012C7.1023 0.75 6.72077 0.908035 6.43946 1.18934C6.15816 1.47064 6.00012 1.85218 6.00012 2.25V3.75" stroke="#7D7E8A" stroke-width="1.5" stroke-linecap="round" stroke-linejoin="round"/>
</svg>
