<svg width="14" height="22" viewBox="0 0 14 22" fill="none" xmlns="http://www.w3.org/2000/svg">
<path d="M7 1.06738V20.5674M12.25 7.06738C12.25 6.57493 12.153 6.08729 11.9645 5.63232C11.7761 5.17735 11.4999 4.76395 11.1517 4.41573C10.8034 4.06751 10.39 3.79129 9.93506 3.60283C9.48009 3.41438 8.99246 3.31738 8.5 3.31738H5.125C4.13044 3.31738 3.17661 3.71247 2.47335 4.41573C1.77009 5.11899 1.375 6.07282 1.375 7.06738C1.375 8.06194 1.77009 9.01577 2.47335 9.71903C3.17661 10.4223 4.13044 10.8174 5.125 10.8174H9.25C10.2446 10.8174 11.1984 11.2125 11.9017 11.9157C12.6049 12.619 13 13.5728 13 14.5674C13 15.5619 12.6049 16.5158 11.9017 17.219C11.1984 17.9223 10.2446 18.3174 9.25 18.3174H4.75C3.75544 18.3174 2.80161 17.9223 2.09835 17.219C1.39509 16.5158 1 15.5619 1 14.5674" stroke="#15183B" stroke-width="1.5" stroke-linecap="round" stroke-linejoin="round"/>
</svg>
