<svg width="20" height="20" viewBox="0 0 20 20" fill="none" xmlns="http://www.w3.org/2000/svg">
<g id="Icon">
<path id="Vector" d="M6.51361 19.0309L0.952828 13.4701M10.611 3.709L16.2749 9.37295M6.23016 19.0826H1.7105C1.49591 19.0826 1.2901 18.9973 1.13836 18.8456C0.986615 18.6938 0.901367 18.488 0.901367 18.2734V13.7538C0.901367 13.6475 0.922296 13.5423 0.962959 13.4441C1.00362 13.346 1.06322 13.2568 1.13836 13.1816L13.2754 1.04461C13.4271 0.892865 13.6329 0.807617 13.8475 0.807617C14.0621 0.807617 14.2679 0.892865 14.4197 1.04461L18.9393 5.56426C19.0911 5.716 19.1763 5.92181 19.1763 6.13641C19.1763 6.351 19.0911 6.55681 18.9393 6.70855L6.8023 18.8456C6.72717 18.9207 6.63797 18.9803 6.5398 19.021C6.44163 19.0616 6.33641 19.0826 6.23016 19.0826Z" stroke="#DF0024" stroke-width="1.5" stroke-linecap="round" stroke-linejoin="round"/>
</g>
</svg>
