<svg width="24" height="24" viewBox="0 0 24 24" fill="none" xmlns="http://www.w3.org/2000/svg">
<path d="M20.7812 17.3796L20.7791 17.3763L14.9235 8.10066L14.9233 8.1003C14.6462 7.66063 14.4993 7.15154 14.4994 6.63188C14.4994 6.63183 14.4994 6.63178 14.4994 6.63173V3V2.5H14.9994H15.7288C15.8826 2.5 15.9932 2.38247 15.9995 2.26171C16.0011 2.228 15.9959 2.19432 15.9841 2.1627L16.4526 1.98809L15.9841 2.1627C15.9723 2.13098 15.9541 2.10198 15.9308 2.07748C15.9074 2.05298 15.8793 2.03348 15.8482 2.02016C15.817 2.00684 15.7835 1.99998 15.7497 2L15.7494 2L8.27051 2C8.11668 2 8.00603 2.11763 7.99976 2.23843C7.9982 2.27208 8.00345 2.3057 8.01521 2.33727C8.02703 2.36898 8.04515 2.39796 8.0685 2.42246C8.09185 2.44696 8.11992 2.46647 8.15103 2.47979L7.9632 2.91818L8.15103 2.4798C8.18212 2.49312 8.21559 2.49999 8.24942 2.5C8.24943 2.5 8.24945 2.5 8.24947 2.5H8.99942H9.49942V3V6.63154V6.63188H8.99942C8.9997 7.05715 8.87925 7.47377 8.65208 7.83328L20.7812 17.3796ZM20.7812 17.3796C21.0706 17.8302 21.2328 18.3508 21.2504 18.886C21.2681 19.4213 21.1406 19.9514 20.8815 20.4201L20.8798 20.4233C20.3493 21.3995 19.3069 22 18.1808 22H5.81801C4.69186 22 3.6493 21.3993 3.11886 20.4252L3.11723 20.4223C2.85774 19.9533 2.73005 19.4229 2.74771 18.8872C2.76536 18.3515 2.92771 17.8306 3.21752 17.3797L3.21754 17.3797L3.21973 17.3763L9.07476 8.10037L20.7812 17.3796ZM16.7988 13.3064C16.7663 13.3651 16.7187 13.4141 16.6608 13.4482M16.7988 13.3064L17.2364 13.5482C17.1607 13.6853 17.0495 13.7996 16.9145 13.879L16.6608 13.4482M16.7988 13.3064C16.8313 13.2476 16.8474 13.1812 16.8454 13.1141C16.8435 13.047 16.8235 12.9816 16.7877 12.9248L16.4696 14H16.4699V13.5M16.7988 13.3064L17.2364 13.5482C17.3122 13.4111 17.3498 13.2561 17.3452 13.0995C17.3407 12.9429 17.2941 12.7904 17.2105 12.658L17.2105 12.6579L14.5011 8.36741L14.5011 8.36739C14.1731 7.84805 13.9992 7.24633 13.9994 6.63209V6.63188V3.1875C13.9994 3.00517 13.927 2.8303 13.7981 2.70137C13.6691 2.57243 13.4943 2.5 13.3119 2.5H10.6869C10.5046 2.5 10.3297 2.57243 10.2008 2.70136L10.2008 2.70136C10.0718 2.8303 9.99942 3.00517 9.99942 3.1875V6.63188V6.63219C9.99981 7.24636 9.82602 7.84804 9.49822 8.36741C9.4982 8.36743 9.49818 8.36746 9.49817 8.36749L6.78885 12.6579L6.78879 12.658C6.70522 12.7904 6.65871 12.9428 6.6541 13.0993C6.6495 13.2558 6.68697 13.4106 6.7626 13.5477L7.20039 13.3062L6.7626 13.5477C6.83824 13.6848 6.94927 13.7991 7.08412 13.8786L7.33818 13.448L7.08412 13.8786C7.21897 13.9582 7.37269 14.0001 7.52926 14M16.6608 13.4482C16.603 13.4822 16.537 13.5001 16.4699 13.5M16.6608 13.4482L16.4699 13.5M7.52926 14H7.52895V13.5L7.52926 14ZM7.52926 14L16.469 14L16.4699 13.5" stroke="#4D4D4D"/>
</svg>
