<svg width="79" height="74" viewBox="0 0 79 74" fill="none" xmlns="http://www.w3.org/2000/svg">
<g id="Icon">
<path id="Vector" d="M69.8125 40.8326V68.1138C69.8125 68.9178 69.4931 69.6888 68.9247 70.2572C68.3562 70.8257 67.5852 71.1451 66.7812 71.1451H12.2187C11.4148 71.1451 10.6438 70.8257 10.0753 70.2572C9.50686 69.6888 9.1875 68.9178 9.1875 68.1138V40.8326M39.5 22.6451V71.1451M39.5 22.6451C39.5 22.6451 52.3605 22.6451 56.6473 18.3582C58.3511 16.6525 59.3079 14.34 59.3072 11.9291C59.3065 9.51814 58.3485 7.20616 56.6437 5.50139C54.9389 3.79661 52.6269 2.83858 50.216 2.83789C47.8051 2.8372 45.4926 3.79393 43.7868 5.49773C39.5 9.78456 39.5 22.6451 39.5 22.6451ZM39.5 22.6451C39.5 22.6451 26.6395 22.6451 22.3527 18.3582C20.6489 16.6525 19.6921 14.34 19.6928 11.9291C19.6935 9.51814 20.6515 7.20616 22.3563 5.50139C24.0611 3.79661 26.3731 2.83858 28.784 2.83789C31.1949 2.8372 33.5074 3.79393 35.2132 5.49773C39.5 9.78456 39.5 22.6451 39.5 22.6451ZM6.15625 22.6451H72.8438C74.5179 22.6451 75.875 24.0022 75.875 25.6763V37.8013C75.875 39.4754 74.5179 40.8326 72.8438 40.8326H6.15625C4.48213 40.8326 3.125 39.4754 3.125 37.8013V25.6763C3.125 24.0022 4.48213 22.6451 6.15625 22.6451Z" stroke="white" stroke-width="5" stroke-linecap="round" stroke-linejoin="round"/>
</g>
</svg>
