<svg width="24" height="19" viewBox="0 0 24 19" fill="none" xmlns="http://www.w3.org/2000/svg">
<path d="M1.49878 18.25H22.4988M20.2488 18.25V8.83178C20.2488 8.72728 20.2269 8.62394 20.1847 8.52837C20.1424 8.4328 20.0806 8.34713 20.0033 8.27683L12.5028 1.45792C12.3647 1.3324 12.1848 1.26286 11.9982 1.26286C11.8117 1.26287 11.6318 1.33243 11.4937 1.45795L3.99423 8.27684C3.91692 8.34713 3.85515 8.4328 3.81288 8.52836C3.77061 8.62392 3.74878 8.72726 3.74878 8.83175V18.25M14.2482 18.2492V12.9992C14.2482 12.8003 14.1692 12.6095 14.0286 12.4689C13.8879 12.3282 13.6971 12.2492 13.4982 12.2492H10.4982C10.2993 12.2492 10.1086 12.3282 9.9679 12.4689C9.82725 12.6095 9.74823 12.8003 9.74823 12.9992V18.2492" stroke="#919BA3" stroke-width="1.5" stroke-linecap="round" stroke-linejoin="round"/>
</svg>
