<svg width="16" height="13" viewBox="0 0 16 13" fill="none" xmlns="http://www.w3.org/2000/svg">
<path d="M1 12.4996H15M13.5 12.4996V6.22075C13.5 6.15108 13.4854 6.08219 13.4573 6.01848C13.4291 5.95477 13.3879 5.89765 13.3363 5.85079L8.336 1.30484C8.24396 1.22116 8.12403 1.1748 7.99964 1.1748C7.87525 1.17481 7.75532 1.22118 7.66329 1.30486L2.66363 5.85079C2.61209 5.89765 2.57091 5.95477 2.54273 6.01847C2.51456 6.08218 2.5 6.15107 2.5 6.22073V12.4996M9.49963 12.499V8.99904C9.49963 8.86643 9.44696 8.73926 9.35319 8.64549C9.25942 8.55172 9.13224 8.49904 8.99963 8.49904H6.99963C6.86703 8.49904 6.73985 8.55172 6.64608 8.64549C6.55231 8.73926 6.49963 8.86643 6.49963 8.99904V12.499" stroke="#DF0024" stroke-linecap="round" stroke-linejoin="round"/>
</svg>
