<svg width="72" height="73" viewBox="0 0 72 73" fill="none" xmlns="http://www.w3.org/2000/svg">
<rect y="0.105469" width="72" height="72" rx="36" fill="#C90020"/>
<path d="M32.09 35.7359H27.4C27.48 31.0659 28.4 30.2959 31.27 28.5959C31.6 28.3959 31.71 27.9759 31.51 27.6359C31.32 27.3059 30.89 27.1959 30.56 27.3959C27.18 29.3959 26 30.6159 26 36.4259V41.8159C26 43.5259 27.39 44.9059 29.09 44.9059H32.09C33.85 44.9059 35.18 43.5759 35.18 41.8159V38.8159C35.18 37.0659 33.85 35.7359 32.09 35.7359Z" fill="white"/>
<path d="M42.9101 35.7359H38.2201C38.3001 31.0659 39.2201 30.2959 42.0901 28.5959C42.4201 28.3959 42.5301 27.9759 42.3301 27.6359C42.1301 27.3059 41.7101 27.1959 41.3701 27.3959C37.9901 29.3959 36.8101 30.6159 36.8101 36.4359V41.8259C36.8101 43.5359 38.2001 44.9159 39.9001 44.9159H42.9001C44.6601 44.9159 45.9901 43.5859 45.9901 41.8259V38.8259C46.0001 37.0659 44.6701 35.7359 42.9101 35.7359Z" fill="white"/>
<circle cx="35.5" cy="35.6055" r="32.25" stroke="white" stroke-width="0.5" stroke-dasharray="3 3"/>
</svg>
