<svg width="32" height="32" viewBox="0 0 32 32" fill="none" xmlns="http://www.w3.org/2000/svg">
<path fill-rule="evenodd" clip-rule="evenodd" d="M11.0995 6.21717C11.1094 6.17367 11.1213 6.12145 11.1363 6.05731C11.2062 5.75993 11.3212 5.32287 11.5578 4.89213C11.7989 4.45336 12.1729 4.00865 12.7594 3.71613C13.3439 3.42461 14.0769 3.31538 14.9828 3.43617C15.9827 3.56947 17.9916 3.90021 19.7659 4.80282C21.551 5.71089 23.2227 7.2724 23.2226 9.8738C23.2226 11.2177 22.7023 12.6597 22.1992 13.5999C21.9571 14.0523 21.6693 14.484 21.3817 14.7169C21.3157 14.7703 21.2221 14.8365 21.1047 14.8838C20.4405 17.0731 18.4064 18.6666 16.0002 18.6666C13.7781 18.6666 11.8733 17.3076 11.0718 15.3754L11.0555 15.3777L10.8189 15.0905C10.8191 15.0907 10.8189 15.0905 11.3335 14.6666L10.8189 15.0905L10.8181 15.0894L10.8168 15.0879L10.8133 15.0835L10.8021 15.0697C10.7931 15.0583 10.7805 15.0425 10.7649 15.0224C10.7337 14.9822 10.6903 14.9249 10.6375 14.8519C10.5321 14.7062 10.3887 14.497 10.2312 14.2361C9.91793 13.7172 9.53933 12.9785 9.29793 12.1167C9.0564 11.2545 8.9454 10.244 9.19893 9.2016C9.4458 8.1866 10.0274 7.18753 11.0815 6.29607C11.0869 6.27287 11.0928 6.24693 11.0995 6.21717ZM12.2193 14.6424C12.7615 16.2086 14.2495 17.3333 16.0002 17.3333C17.9515 17.3333 19.5765 15.936 19.9292 14.0874L20.0039 14.1123C20.0012 14.073 20.0002 14.0353 20.0002 13.9999C20.0002 12.8959 19.8471 12.1255 19.7041 11.6462C19.6723 11.5397 19.641 11.4474 19.6118 11.3687L19.584 11.3697L19.5574 11.3705C19.2028 11.3808 18.6995 11.3627 18.0697 11.2563C16.9251 11.0631 15.3748 10.5804 13.5498 9.46253C13.5099 9.552 13.4698 9.65247 13.4301 9.76453C13.2991 10.1348 13.1917 10.574 13.0987 11.0376C13.0167 11.4464 12.9492 11.8574 12.8857 12.2435L12.8607 12.3953C12.7925 12.809 12.7237 13.2143 12.6434 13.5087C12.504 14.0197 12.361 14.3823 12.2193 14.6424ZM11.2865 13.4009C11.0347 12.9636 10.7604 12.3943 10.5819 11.7571C10.3829 11.0467 10.3096 10.2769 10.4945 9.51667C10.6745 8.77673 11.1101 7.9984 12.0057 7.2614C12.1668 7.1522 12.2403 7.00533 12.2601 6.9658L12.2605 6.96507C12.3028 6.88053 12.3287 6.79513 12.344 6.7406C12.3654 6.66436 12.3888 6.56121 12.4103 6.46689C12.4187 6.42997 12.4267 6.39441 12.4343 6.36234C12.4974 6.09392 12.5797 5.80113 12.7264 5.53413C12.8687 5.27514 13.064 5.05419 13.3545 4.90928C13.647 4.76337 14.0987 4.66342 14.8066 4.75781C15.7755 4.88699 17.5973 5.19559 19.1614 5.99123C20.7147 6.7814 21.8893 7.97707 21.8893 9.8738C21.8893 10.7475 21.5956 11.7402 21.2427 12.5242C21.1761 12.0135 21.0804 11.5958 20.9817 11.2651C20.8914 10.9621 20.7989 10.7333 20.7247 10.5739C20.6877 10.4942 20.6553 10.4319 20.6302 10.3865C20.6177 10.3637 20.6069 10.3453 20.5983 10.3309L20.5871 10.3124L20.5827 10.3055L20.5809 10.3026L20.5797 10.3007C20.5795 10.3004 20.5793 10.3001 20.0189 10.6613L20.5793 10.3001L20.3329 9.91787L19.8915 10.0069L19.8822 10.0085C19.8705 10.0103 19.8489 10.0135 19.8178 10.0172C19.7555 10.0246 19.655 10.0338 19.5187 10.0377C19.2463 10.0457 18.8305 10.0326 18.2917 9.9416C17.2166 9.76007 15.6368 9.26573 13.7176 7.98753L13.2511 7.67687L12.8649 8.08307C12.5467 8.41773 12.3307 8.8748 12.1732 9.31967C12.0117 9.77613 11.8897 10.2855 11.7914 10.7755C11.7045 11.2089 11.633 11.6441 11.5699 12.0281L11.5452 12.1781C11.4736 12.612 11.4155 12.9433 11.357 13.1579C11.3329 13.2463 11.3093 13.3271 11.2865 13.4009ZM20.5404 13.6823L20.5429 13.6805L20.5404 13.6823ZM20.5429 13.6805L20.5424 13.6809L20.5429 13.6805ZM20.5424 13.6809L20.5404 13.6823L20.5424 13.6809Z" fill="#2B2171"/>
<path fill-rule="evenodd" clip-rule="evenodd" d="M11.9427 19.2365C11.8017 18.9552 11.6275 18.6079 11.3333 18.6749C7.73053 19.4954 4 21.8628 4 24.3797V27.9998H28V24.3797C28 22.3972 25.6854 20.5074 22.9418 19.3933C22.9408 19.3912 22.9398 19.3892 22.9388 19.387C22.9358 19.3808 22.9327 19.3745 22.9296 19.3683L22.9074 19.3794C22.1784 19.0855 21.4197 18.8464 20.6667 18.6749C20.3315 18.5986 19.985 19.0599 19.8329 19.349H17.1234C16.5322 19.349 16.2305 19.349 15.9348 19.349H15.9179C15.6158 19.3489 15.3137 19.3488 14.7093 19.349H12C11.9814 19.3136 11.9624 19.2757 11.9427 19.2365ZM20.9353 20.1171C21.2265 20.1974 21.5166 20.2881 21.8029 20.3882C21.8107 20.6162 21.7935 20.8854 21.7561 21.1597C21.7183 21.4369 21.6621 21.7028 21.5996 21.9173C21.5911 21.9462 21.5827 21.9738 21.5744 21.9998H20.6667C20.4141 21.9998 20.1833 22.1424 20.0704 22.3683L19.4037 23.7016C19.3574 23.7942 19.3333 23.8963 19.3333 23.9998V25.3331C19.3333 25.7013 19.6318 25.9998 20 25.9998H21.3333V24.6664H20.6667V24.1572L21.0787 23.3331H22.9213L23.3333 24.1572V24.6664H22.6667V25.9998H24C24.3682 25.9998 24.6667 25.7013 24.6667 25.3331V23.9998C24.6667 23.8963 24.6426 23.7942 24.5963 23.7016L23.9296 22.3683C23.8167 22.1424 23.5859 21.9998 23.3333 21.9998H22.9557C23.0051 21.7898 23.0465 21.5654 23.0772 21.3398C23.0957 21.2045 23.1107 21.066 23.1212 20.9274C23.7711 21.2348 24.3756 21.5868 24.8985 21.9683C26.1802 22.9034 26.6667 23.7778 26.6667 24.3797V26.6664H5.33333V24.3797C5.33333 23.7778 5.81981 22.9034 7.10153 21.9683C7.74567 21.4983 8.51367 21.073 9.33807 20.721C9.34667 20.9275 9.36653 21.1372 9.3942 21.3398C9.43973 21.6738 9.50853 22.005 9.5918 22.2906L9.59733 22.3094C9.038 22.664 8.66667 23.2885 8.66667 23.9998C8.66667 25.1044 9.56207 25.9998 10.6667 25.9998C11.7713 25.9998 12.6667 25.1044 12.6667 23.9998C12.6667 22.9746 11.8954 22.1296 10.9014 22.0134C10.8917 21.9834 10.8817 21.9514 10.8718 21.9173C10.8093 21.7028 10.7531 21.4369 10.7153 21.1597C10.6774 20.8817 10.6602 20.6089 10.6689 20.379C10.6709 20.3233 10.6744 20.2737 10.6788 20.2298C10.7588 20.2052 10.8389 20.1812 10.9192 20.1582L11.1951 20.6823H14.7096C15.3275 20.6822 15.625 20.6822 15.9264 20.6823C16.2209 20.6823 16.519 20.6824 17.1234 20.6823H20.6377L20.9353 20.1171ZM10.6667 24.6762C11.0256 24.6762 11.3333 24.3826 11.3333 23.9998C11.3333 23.617 11.0256 23.3233 10.6667 23.3233C10.3077 23.3233 10 23.617 10 23.9998C10 24.3826 10.3077 24.6762 10.6667 24.6762Z" fill="#2B2171"/>
</svg>
