<svg width="119" height="122" viewBox="0 0 119 122" fill="none" xmlns="http://www.w3.org/2000/svg">
<g filter="url(#filter0_d_772_2802)">
<path d="M66.3019 69.2637C73.4872 67.4011 79.6285 62.7404 83.3569 56.3199C87.132 49.8597 88.165 42.3202 86.2687 35.0851C84.3724 27.85 79.7742 21.7863 73.3166 18.0117C66.8628 14.2362 59.3294 13.2002 52.0944 15.0964C44.9055 16.9596 38.7607 21.6225 35.0302 28.0463C28.9531 38.3858 30.1623 51.4554 38.0335 60.5065L39.1937 69.6387C39.3503 70.8688 40.0282 71.9724 41.0545 72.6679C42.2463 73.477 43.7634 73.636 45.0967 73.0919L53.6194 69.6242C57.8196 70.4703 62.1571 70.347 66.3019 69.2637Z" fill="url(#paint0_linear_772_2802)"/>
</g>
<path d="M55.7265 48.7493C55.1658 48.6024 54.8305 48.0286 54.9775 47.4676C55.437 45.7146 56.6596 44.2203 58.2465 43.4726C58.5137 43.3472 58.7977 43.2241 59.0837 43.1015C59.9105 42.7451 60.766 42.3787 61.3013 41.8351C62.0405 41.0845 62.224 39.7714 61.7368 38.7081C61.1214 37.3636 59.5462 36.8249 58.8964 36.6546C55.2011 35.6861 54.2623 38.6226 54.1672 38.9602C54.0107 39.5162 53.3928 39.7624 52.8795 39.693C52.3227 39.5434 51.9921 38.9711 52.1406 38.4138C52.6301 36.5709 54.7847 33.4084 59.4283 34.6254C61.412 35.1453 62.9479 36.3141 63.6453 37.8342C64.4962 39.6876 64.1486 41.941 62.7979 43.3107C61.9759 44.1458 60.8804 44.6165 59.9139 45.0339C59.6539 45.1403 59.3964 45.253 59.1418 45.3721C58.0806 45.8935 57.3007 46.8539 57.0079 47.9997C56.9372 48.2691 56.7626 48.4995 56.5223 48.64C56.2821 48.7806 55.9958 48.8199 55.7265 48.7493Z" fill="white"/>
<path d="M59.1125 51.4201C59.0444 51.8507 59.2473 52.2792 59.6236 52.4993C59.9998 52.7195 60.4725 52.6862 60.8141 52.4156C61.0236 52.2574 61.1611 52.0221 61.1962 51.762C61.2643 51.3313 61.0614 50.9027 60.6851 50.6827C60.3089 50.4625 59.8361 50.4958 59.4945 50.7663C59.2876 50.9204 59.1437 51.1667 59.1125 51.4201Z" fill="white"/>
<defs>
<filter id="filter0_d_772_2802" x="0.182617" y="0.170044" width="118.014" height="121.241" filterUnits="userSpaceOnUse" color-interpolation-filters="sRGB">
<feFlood flood-opacity="0" result="BackgroundImageFix"/>
<feColorMatrix in="SourceAlpha" type="matrix" values="0 0 0 0 0 0 0 0 0 0 0 0 0 0 0 0 0 0 127 0" result="hardAlpha"/>
<feMorphology radius="2" operator="erode" in="SourceAlpha" result="effect1_dropShadow_772_2802"/>
<feOffset dy="17"/>
<feGaussianBlur stdDeviation="16.5"/>
<feComposite in2="hardAlpha" operator="out"/>
<feColorMatrix type="matrix" values="0 0 0 0 0.87451 0 0 0 0 0 0 0 0 0 0.141176 0 0 0 0.08 0"/>
<feBlend mode="normal" in2="BackgroundImageFix" result="effect1_dropShadow_772_2802"/>
<feBlend mode="normal" in="SourceGraphic" in2="effect1_dropShadow_772_2802" result="shape"/>
</filter>
<linearGradient id="paint0_linear_772_2802" x1="21.3573" y1="30.3887" x2="109.82" y2="24.8441" gradientUnits="userSpaceOnUse">
<stop stop-color="#DF0024"/>
<stop offset="1" stop-color="#FF3858"/>
</linearGradient>
</defs>
</svg>
