<svg width="16" height="16" viewBox="0 0 16 16" fill="none" xmlns="http://www.w3.org/2000/svg">
<path d="M0.529544 14.129C0.322334 14.4877 0.445108 14.9464 0.803767 15.1536C1.16243 15.3608 1.62116 15.2381 1.82837 14.8794L0.529544 14.129ZM14.1718 14.8795C14.379 15.2382 14.8377 15.361 15.1964 15.1538C15.555 14.9466 15.6778 14.4879 15.4706 14.1292L14.1718 14.8795ZM1.82837 14.8794C2.45409 13.7963 3.35381 12.897 4.43715 12.2718L3.68735 10.9726C2.37602 11.7295 1.28695 12.818 0.529544 14.129L1.82837 14.8794ZM4.43715 12.2718C5.52049 11.6465 6.74929 11.3174 8.00011 11.3174L8.00013 9.81738C6.48607 9.81737 4.99867 10.2158 3.68735 10.9726L4.43715 12.2718ZM8.00011 11.3174C9.25094 11.3174 10.4797 11.6466 11.5631 12.2718L12.3129 10.9727C11.0016 10.2158 9.51419 9.8174 8.00013 9.81738L8.00011 11.3174ZM11.5631 12.2718C12.6464 12.8971 13.5461 13.7965 14.1718 14.8795L15.4706 14.1292C14.7132 12.8182 13.6242 11.7296 12.3129 10.9727L11.5631 12.2718ZM11.75 6.06738C11.75 8.13847 10.0712 9.81738 8.00012 9.81738V11.3174C10.8996 11.3174 13.25 8.96686 13.25 6.06738H11.75ZM8.00012 9.81738C5.92904 9.81738 4.25004 8.13843 4.25004 6.06738H2.75004C2.75004 8.9669 5.10064 11.3174 8.00012 11.3174V9.81738ZM4.25004 6.06738C4.25004 3.99631 5.92897 2.31738 8.00004 2.31738V0.817383C5.10055 0.817383 2.75004 3.16789 2.75004 6.06738H4.25004ZM8.00004 2.31738C10.0711 2.31738 11.75 3.99631 11.75 6.06738H13.25C13.25 3.16789 10.8995 0.817383 8.00004 0.817383V2.31738Z" fill="#15183B"/>
</svg>
