<svg width="14" height="17" viewBox="0 0 14 17" fill="none" xmlns="http://www.w3.org/2000/svg">
<path d="M7.09375 11.7549C7.55974 11.7549 7.9375 11.3771 7.9375 10.9111C7.9375 10.4451 7.55974 10.0674 7.09375 10.0674C6.62776 10.0674 6.25 10.4451 6.25 10.9111C6.25 11.3771 6.62776 11.7549 7.09375 11.7549Z" fill="#5E718D"/>
<path d="M12.625 6.50488H1.375C1.06434 6.50488 0.8125 6.75672 0.8125 7.06738V14.9424C0.8125 15.253 1.06434 15.5049 1.375 15.5049H12.625C12.9357 15.5049 13.1875 15.253 13.1875 14.9424V7.06738C13.1875 6.75672 12.9357 6.50488 12.625 6.50488Z" fill="white"/>
<path d="M4.46875 6.50488V3.97363C4.46875 3.3023 4.73543 2.65847 5.21014 2.18377C5.68484 1.70907 6.32867 1.44238 7 1.44238C7.67133 1.44238 8.31516 1.70907 8.78986 2.18377C9.26457 2.65847 9.53125 3.3023 9.53125 3.97363V6.50488" fill="white"/>
<path d="M7.375 10.9111C7.375 11.0665 7.24908 11.1924 7.09375 11.1924C6.93842 11.1924 6.8125 11.0665 6.8125 10.9111M4.46875 6.50488V3.97363C4.46875 3.3023 4.73543 2.65847 5.21014 2.18377C5.68484 1.70907 6.32867 1.44238 7 1.44238C7.67133 1.44238 8.31516 1.70907 8.78986 2.18377C9.26457 2.65847 9.53125 3.3023 9.53125 3.97363V6.50488M7.9375 10.9111C7.9375 11.3771 7.55974 11.7549 7.09375 11.7549C6.62776 11.7549 6.25 11.3771 6.25 10.9111C6.25 10.4451 6.62776 10.0674 7.09375 10.0674C7.55974 10.0674 7.9375 10.4451 7.9375 10.9111ZM1.375 6.50488H12.625C12.9357 6.50488 13.1875 6.75672 13.1875 7.06738V14.9424C13.1875 15.253 12.9357 15.5049 12.625 15.5049H1.375C1.06434 15.5049 0.8125 15.253 0.8125 14.9424V7.06738C0.8125 6.75672 1.06434 6.50488 1.375 6.50488Z" stroke="#10132E" stroke-width="1.5" stroke-linecap="round" stroke-linejoin="round"/>
</svg>
