<svg width="48" height="49" viewBox="0 0 48 49" fill="none" xmlns="http://www.w3.org/2000/svg">
<rect y="0.105469" width="48" height="48" rx="24" fill="#C90020"/>
<path d="M20.9096 32.775C20.7196 32.775 20.5296 32.705 20.3796 32.555C20.0896 32.265 20.0896 31.785 20.3796 31.495L26.8996 24.975C27.3796 24.495 27.3796 23.715 26.8996 23.235L20.3796 16.715C20.0896 16.425 20.0896 15.945 20.3796 15.655C20.6696 15.365 21.1496 15.365 21.4396 15.655L27.9596 22.175C28.4696 22.685 28.7596 23.375 28.7596 24.105C28.7596 24.835 28.4796 25.525 27.9596 26.035L21.4396 32.555C21.2896 32.695 21.0996 32.775 20.9096 32.775Z" fill="white"/>
<circle cx="24.5" cy="24.6055" r="19.25" stroke="white" stroke-width="0.5" stroke-dasharray="3 3"/>
</svg>
