<svg width="20" height="22" viewBox="0 0 20 22" fill="none" xmlns="http://www.w3.org/2000/svg">
<path d="M18.78 16.3796L18.7779 16.3763L12.9223 7.10066L12.922 7.1003C12.645 6.66063 12.4981 6.15154 12.4982 5.63188C12.4982 5.63183 12.4982 5.63178 12.4982 5.63173V2V1.5H12.9982H13.7276C13.8813 1.5 13.992 1.38247 13.9983 1.26171C13.9999 1.228 13.9946 1.19432 13.9829 1.1627L14.4514 0.988095L13.9829 1.1627C13.971 1.13098 13.9529 1.10198 13.9295 1.07748C13.9062 1.05298 13.8781 1.03348 13.847 1.02016C13.8158 1.00684 13.7823 0.999982 13.7485 1L13.7482 1L6.26929 1C6.11546 1 6.00481 1.11763 5.99854 1.23843C5.99698 1.27208 6.00223 1.3057 6.01399 1.33727C6.02581 1.36898 6.04393 1.39796 6.06728 1.42246C6.09063 1.44696 6.1187 1.46647 6.14981 1.47979L5.96198 1.91818L6.14981 1.4798C6.1809 1.49312 6.21437 1.49999 6.2482 1.5C6.24821 1.5 6.24823 1.5 6.24824 1.5H6.9982H7.4982V2V5.63154V5.63188H6.9982C6.99848 6.05715 6.87803 6.47377 6.65086 6.83328L18.78 16.3796ZM18.78 16.3796C19.0694 16.8302 19.2316 17.3508 19.2492 17.886C19.2669 18.4213 19.1394 18.9514 18.8803 19.4201L18.8786 19.4233C18.3481 20.3995 17.3056 21 16.1796 21H3.81679C2.69064 21 1.64808 20.3993 1.11763 19.4252L1.11601 19.4223C0.856517 18.9533 0.728827 18.4229 0.746485 17.8872C0.764143 17.3515 0.926491 16.8306 1.2163 16.3797L1.21632 16.3797L1.21851 16.3763L7.07354 7.10037L18.78 16.3796ZM14.7976 12.3064C14.7651 12.3651 14.7175 12.4141 14.6596 12.4482M14.7976 12.3064L15.2352 12.5482C15.1595 12.6853 15.0483 12.7996 14.9133 12.879L14.6596 12.4482M14.7976 12.3064C14.8301 12.2476 14.8462 12.1812 14.8442 12.1141C14.8423 12.047 14.8223 11.9816 14.7865 11.9248L14.4684 13H14.4687V12.5M14.7976 12.3064L15.2352 12.5482C15.311 12.4111 15.3486 12.2561 15.344 12.0995C15.3394 11.9429 15.2929 11.7904 15.2093 11.658L15.2092 11.6579L12.4999 7.36741L12.4999 7.36739C12.1719 6.84805 11.9979 6.24633 11.9982 5.63209V5.63188V2.1875C11.9982 2.00517 11.9258 1.8303 11.7968 1.70137C11.6679 1.57243 11.493 1.5 11.3107 1.5H8.6857C8.50336 1.5 8.3285 1.57243 8.19957 1.70136L8.19956 1.70136C8.07063 1.8303 7.9982 2.00517 7.9982 2.1875V5.63188V5.63219C7.99859 6.24636 7.8248 6.84804 7.497 7.36741C7.49698 7.36743 7.49696 7.36746 7.49694 7.36749L4.78762 11.6579L4.78757 11.658C4.704 11.7904 4.65749 11.9428 4.65288 12.0993C4.64828 12.2558 4.68575 12.4106 4.76138 12.5477L5.19916 12.3062L4.76138 12.5477C4.83702 12.6848 4.94805 12.7991 5.0829 12.8786L5.33696 12.448L5.0829 12.8786C5.21774 12.9582 5.37147 13.0001 5.52804 13M14.6596 12.4482C14.6017 12.4822 14.5358 12.5001 14.4687 12.5M14.6596 12.4482L14.4687 12.5M5.52804 13H5.52773V12.5L5.52804 13ZM5.52804 13L14.4677 13L14.4687 12.5" stroke="#DF0024"/>
</svg>
