<svg width="20" height="22" viewBox="0 0 20 22" fill="none" xmlns="http://www.w3.org/2000/svg">
<path d="M18.7812 16.3796L18.7791 16.3763L12.9235 7.10066L12.9233 7.1003C12.6462 6.66063 12.4993 6.15154 12.4994 5.63188C12.4994 5.63183 12.4994 5.63178 12.4994 5.63173V2V1.5H12.9994H13.7288C13.8826 1.5 13.9932 1.38247 13.9995 1.26171C14.0011 1.228 13.9959 1.19432 13.9841 1.1627L14.4526 0.988095L13.9841 1.1627C13.9723 1.13098 13.9541 1.10198 13.9308 1.07748C13.9074 1.05298 13.8793 1.03348 13.8482 1.02016C13.817 1.00684 13.7835 0.999982 13.7497 1L13.7494 1L6.27051 1C6.11668 1 6.00603 1.11763 5.99976 1.23843C5.9982 1.27208 6.00345 1.3057 6.01521 1.33727C6.02703 1.36898 6.04515 1.39796 6.0685 1.42246C6.09185 1.44696 6.11992 1.46647 6.15103 1.47979L5.9632 1.91818L6.15103 1.4798C6.18212 1.49312 6.21559 1.49999 6.24942 1.5C6.24943 1.5 6.24945 1.5 6.24947 1.5H6.99942H7.49942V2V5.63154V5.63188H6.99942C6.9997 6.05715 6.87925 6.47377 6.65208 6.83328L18.7812 16.3796ZM18.7812 16.3796C19.0706 16.8302 19.2328 17.3508 19.2504 17.886C19.2681 18.4213 19.1406 18.9514 18.8815 19.4201L18.8798 19.4233C18.3493 20.3995 17.3069 21 16.1808 21H3.81801C2.69186 21 1.6493 20.3993 1.11886 19.4252L1.11723 19.4223C0.857737 18.9533 0.730048 18.4229 0.747706 17.8872C0.765364 17.3515 0.927711 16.8306 1.21752 16.3797L1.21754 16.3797L1.21973 16.3763L7.07476 7.10037L18.7812 16.3796ZM14.7988 12.3064C14.7663 12.3651 14.7187 12.4141 14.6608 12.4482M14.7988 12.3064L15.2364 12.5482C15.1607 12.6853 15.0495 12.7996 14.9145 12.879L14.6608 12.4482M14.7988 12.3064C14.8313 12.2476 14.8474 12.1812 14.8454 12.1141C14.8435 12.047 14.8235 11.9816 14.7877 11.9248L14.4696 13H14.4699V12.5M14.7988 12.3064L15.2364 12.5482C15.3122 12.4111 15.3498 12.2561 15.3452 12.0995C15.3407 11.9429 15.2941 11.7904 15.2105 11.658L15.2105 11.6579L12.5011 7.36741L12.5011 7.36739C12.1731 6.84805 11.9992 6.24633 11.9994 5.63209V5.63188V2.1875C11.9994 2.00517 11.927 1.8303 11.7981 1.70137C11.6691 1.57243 11.4943 1.5 11.3119 1.5H8.68692C8.50458 1.5 8.32972 1.57243 8.20079 1.70136L8.20078 1.70136C8.07185 1.8303 7.99942 2.00517 7.99942 2.1875V5.63188V5.63219C7.99981 6.24636 7.82602 6.84804 7.49822 7.36741C7.4982 7.36743 7.49818 7.36746 7.49817 7.36749L4.78885 11.6579L4.78879 11.658C4.70522 11.7904 4.65871 11.9428 4.6541 12.0993C4.6495 12.2558 4.68697 12.4106 4.7626 12.5477L5.20039 12.3062L4.7626 12.5477C4.83824 12.6848 4.94927 12.7991 5.08412 12.8786L5.33818 12.448L5.08412 12.8786C5.21897 12.9582 5.37269 13.0001 5.52926 13M14.6608 12.4482C14.603 12.4822 14.537 12.5001 14.4699 12.5M14.6608 12.4482L14.4699 12.5M5.52926 13H5.52895V12.5L5.52926 13ZM5.52926 13L14.469 13L14.4699 12.5" stroke="#C90020"/>
</svg>
