<svg width="16" height="19" viewBox="0 0 16 19" fill="none" xmlns="http://www.w3.org/2000/svg">
<path d="M8.00013 9.81738L14.9698 16.7871C15.0747 16.8919 15.1461 17.0256 15.1751 17.1711C15.204 17.3166 15.1891 17.4674 15.1324 17.6044C15.0756 17.7414 14.9795 17.8586 14.8561 17.941C14.7328 18.0234 14.5878 18.0674 14.4395 18.0674H1.56079C1.41246 18.0674 1.26745 18.0234 1.14411 17.941C1.02078 17.8586 0.924647 17.7414 0.867882 17.6044C0.811116 17.4674 0.796264 17.3166 0.825202 17.1711C0.854141 17.0256 0.925571 16.8919 1.03046 16.7871L8.00013 9.81738ZM8.00013 9.81738L14.9698 2.84771C15.0747 2.74282 15.1461 2.60919 15.1751 2.4637C15.204 2.31821 15.1891 2.16741 15.1324 2.03037C15.0756 1.89333 14.9795 1.77619 14.8561 1.69378C14.7328 1.61137 14.5878 1.56738 14.4395 1.56738H1.56079C1.41246 1.56738 1.26745 1.61137 1.14411 1.69378C1.02078 1.77619 0.924647 1.89333 0.867882 2.03037C0.811116 2.16741 0.796264 2.31821 0.825202 2.4637C0.854141 2.60919 0.925571 2.74282 1.03046 2.84771L8.00013 9.81738ZM2.75013 4.56738H13.2501" stroke="#10132E" stroke-width="1.5" stroke-linecap="round" stroke-linejoin="round"/>
</svg>
