<svg width="14" height="17" viewBox="0 0 14 17" fill="none" xmlns="http://www.w3.org/2000/svg">
<path d="M7 9.19727C8.24264 9.19727 9.25 8.18991 9.25 6.94727C9.25 5.70462 8.24264 4.69727 7 4.69727C5.75736 4.69727 4.75 5.70462 4.75 6.94727C4.75 8.18991 5.75736 9.19727 7 9.19727Z" stroke="#10132E" stroke-width="1.5" stroke-linecap="round" stroke-linejoin="round"/>
<path d="M12.625 6.94727C12.625 12.0098 7 15.9473 7 15.9473C7 15.9473 1.375 12.0098 1.375 6.94727C1.375 5.45542 1.96763 4.02468 3.02252 2.96979C4.07742 1.9149 5.50816 1.32227 7 1.32227C8.49184 1.32227 9.92258 1.9149 10.9775 2.96979C12.0324 4.02468 12.625 5.45542 12.625 6.94727Z" stroke="#10132E" stroke-width="1.5" stroke-linecap="round" stroke-linejoin="round"/>
</svg>
