<svg width="25" height="25" viewBox="0 0 25 25" fill="none" xmlns="http://www.w3.org/2000/svg">
<g id="vuesax/bold/location">
<path id="Vector" d="M9.16724 20.8596L9.16737 20.8597C10.1315 21.7875 11.3662 22.25 12.6007 22.25C13.8356 22.25 15.0692 21.7872 16.0223 20.8614L16.0241 20.8596C18.8567 18.136 21.8413 13.9489 20.7331 9.06081L9.16724 20.8596ZM9.16724 20.8596C6.335 18.1363 3.34997 13.9392 4.45825 9.05081L9.16724 20.8596ZM12.6007 2.75C15.9666 2.75 19.7468 4.72167 20.7331 9.06057L4.4583 9.05057C5.44429 4.71277 9.23343 2.75 12.5907 2.75H12.5907H12.5908H12.5909H12.5909H12.591H12.591H12.5911H12.5911H12.5912H12.5913H12.5913H12.5914H12.5914H12.5915H12.5915H12.5916H12.5916H12.5917H12.5918H12.5918H12.5919H12.5919H12.592H12.592H12.5921H12.5921H12.5922H12.5922H12.5923H12.5923H12.5924H12.5924H12.5925H12.5925H12.5926H12.5926H12.5927H12.5927H12.5928H12.5928H12.5929H12.5929H12.593H12.593H12.5931H12.5931H12.5932H12.5932H12.5933H12.5933H12.5934H12.5934H12.5935H12.5935H12.5936H12.5936H12.5937H12.5937H12.5938H12.5938H12.5938H12.5939H12.5939H12.594H12.594H12.5941H12.5941H12.5942H12.5942H12.5942H12.5943H12.5943H12.5944H12.5944H12.5945H12.5945H12.5945H12.5946H12.5946H12.5947H12.5947H12.5948H12.5948H12.5948H12.5949H12.5949H12.595H12.595H12.595H12.5951H12.5951H12.5952H12.5952H12.5952H12.5953H12.5953H12.5954H12.5954H12.5954H12.5955H12.5955H12.5955H12.5956H12.5956H12.5957H12.5957H12.5957H12.5958H12.5958H12.5958H12.5959H12.5959H12.5959H12.596H12.596H12.5961H12.5961H12.5961H12.5962H12.5962H12.5962H12.5963H12.5963H12.5963H12.5964H12.5964H12.5964H12.5965H12.5965H12.5965H12.5966H12.5966H12.5966H12.5967H12.5967H12.5967H12.5968H12.5968H12.5968H12.5968H12.5969H12.5969H12.5969H12.597H12.597H12.597H12.5971H12.5971H12.5971H12.5971H12.5972H12.5972H12.5972H12.5973H12.5973H12.5973H12.5973H12.5974H12.5974H12.5974H12.5975H12.5975H12.5975H12.5975H12.5976H12.5976H12.5976H12.5976H12.5977H12.5977H12.5977H12.5978H12.5978H12.5978H12.5978H12.5979H12.5979H12.5979H12.5979H12.598H12.598H12.598H12.598H12.5981H12.5981H12.5981H12.5981H12.5981H12.5982H12.5982H12.5982H12.5982H12.5983H12.5983H12.5983H12.5983H12.5984H12.5984H12.5984H12.5984H12.5984H12.5985H12.5985H12.5985H12.5985H12.5985H12.5986H12.5986H12.5986H12.5986H12.5986H12.5987H12.5987H12.5987H12.5987H12.5987H12.5988H12.5988H12.5988H12.5988H12.5988H12.5989H12.5989H12.5989H12.5989H12.5989H12.599H12.599H12.599H12.599H12.599H12.599H12.5991H12.5991H12.5991H12.5991H12.5991H12.5991H12.5992H12.5992H12.5992H12.5992H12.5992H12.5992H12.5993H12.5993H12.5993H12.5993H12.5993H12.5993H12.5994H12.5994H12.5994H12.5994H12.5994H12.5994H12.5994H12.5995H12.5995H12.5995H12.5995H12.5995H12.5995H12.5995H12.5996H12.5996H12.5996H12.5996H12.5996H12.5996H12.5996H12.5997H12.5997H12.5997H12.5997H12.5997H12.5997H12.5997H12.5997H12.5998H12.5998H12.5998H12.5998H12.5998H12.5998H12.5998H12.5998H12.5998H12.5999H12.5999H12.5999H12.5999H12.5999H12.5999H12.5999H12.5999H12.5999H12.6H12.6H12.6H12.6H12.6H12.6H12.6H12.6H12.6H12.6H12.6H12.6001H12.6001H12.6001H12.6001H12.6001H12.6001H12.6001H12.6001H12.6001H12.6001H12.6001H12.6002H12.6002H12.6002H12.6002H12.6002H12.6002H12.6002H12.6002H12.6002H12.6002H12.6002H12.6002H12.6003H12.6003H12.6003H12.6003H12.6003H12.6003H12.6003H12.6003H12.6004H12.6004H12.6004H12.6004H12.6004H12.6004H12.6004H12.6004H12.6004H12.6005H12.6005H12.6005H12.6005H12.6005H12.6005H12.6005H12.6005H12.6005H12.6005H12.6005H12.6005H12.6006H12.6006H12.6006H12.6006H12.6006H12.6006H12.6006H12.6006H12.6006H12.6006H12.6006H12.6006H12.6007H12.6007H12.6007H12.6007ZM8.95068 10.81C8.95068 12.8261 10.5845 14.46 12.6007 14.46C14.6168 14.46 16.2507 12.8261 16.2507 10.81C16.2507 8.79386 14.6168 7.16 12.6007 7.16C10.5845 7.16 8.95068 8.79386 8.95068 10.81Z" fill="#4D4D4D" stroke="#4D4D4D"/>
</g>
</svg>
