<svg width="17" height="17" viewBox="0 0 17 17" fill="none" xmlns="http://www.w3.org/2000/svg">
<path d="M6.0806 14.3972L2.64435 10.9609M8.61255 4.92912L12.1125 8.42912M5.90544 14.4291H3.11255C2.97994 14.4291 2.85276 14.3764 2.759 14.2827C2.66523 14.1889 2.61255 14.0617 2.61255 13.9291V11.1362C2.61255 11.0706 2.62548 11.0056 2.65061 10.9449C2.67574 10.8842 2.71257 10.8291 2.759 10.7827L10.259 3.28268C10.3528 3.18891 10.4799 3.13623 10.6125 3.13623C10.7452 3.13623 10.8723 3.18891 10.9661 3.28268L13.759 6.07557C13.8528 6.16934 13.9054 6.29652 13.9054 6.42912C13.9054 6.56173 13.8528 6.68891 13.759 6.78268L6.259 14.2827C6.21257 14.3291 6.15745 14.3659 6.09678 14.3911C6.03612 14.4162 5.9711 14.4291 5.90544 14.4291Z" stroke="#DF0024" stroke-width="1.5" stroke-linecap="round" stroke-linejoin="round"/>
</svg>
