<svg width="13" height="13" viewBox="0 0 13 13" fill="none" xmlns="http://www.w3.org/2000/svg">
<path d="M3.77977 6.80126C4.29842 7.8616 5.15792 8.71719 6.2206 9.231C6.29835 9.26785 6.38436 9.28381 6.47015 9.27732C6.55595 9.27083 6.63857 9.24211 6.7099 9.19398L8.27462 8.15059C8.34383 8.10444 8.42345 8.07629 8.50628 8.06868C8.58911 8.06107 8.67253 8.07425 8.74898 8.10701L11.6763 9.36157C11.7757 9.40382 11.8588 9.47723 11.9128 9.57076C11.9669 9.66428 11.9892 9.77286 11.9762 9.88012C11.8837 10.6041 11.5304 11.2696 10.9826 11.7519C10.4347 12.2342 9.72989 12.5003 9 12.5003C6.74566 12.5003 4.58365 11.6048 2.98959 10.0107C1.39553 8.41665 0.5 6.25465 0.5 4.00031C0.500038 3.27041 0.766121 2.56556 1.24843 2.01773C1.73073 1.46989 2.39618 1.11664 3.12019 1.02412C3.22745 1.01114 3.33602 1.03337 3.42955 1.08746C3.52307 1.14155 3.59649 1.22457 3.63873 1.32401L4.89439 4.25387C4.92687 4.32966 4.9401 4.4123 4.93291 4.49443C4.92572 4.57657 4.89833 4.65565 4.85318 4.72464L3.81341 6.31337C3.76608 6.38484 3.7381 6.46736 3.73221 6.55288C3.72631 6.63839 3.7427 6.72397 3.77977 6.80126V6.80126Z" stroke="#DF0024" stroke-linecap="round" stroke-linejoin="round"/>
</svg>
