<svg width="25" height="27" viewBox="0 0 25 27" fill="none" xmlns="http://www.w3.org/2000/svg">
<path fill-rule="evenodd" clip-rule="evenodd" d="M1.49998 0.974939C1.49685 0.97782 1.49374 0.98072 1.49064 0.983637L1.50866 0.965625C1.7443 0.753856 2.04607 0.640625 2.39266 0.640625C2.73066 0.640625 3.11166 0.748625 3.51366 0.977625L18.1217 9.27763L23.0147 12.0576C24.4117 12.8516 24.4117 14.1516 23.0147 14.9466L18.1217 17.7266L18.0549 17.7635L3.51366 26.0256C2.90651 26.3706 2.34754 26.4406 1.90965 26.2786C1.76144 26.2237 1.62706 26.1423 1.5094 26.0359L1.49014 26.0181C1.47154 26.0006 1.45337 25.9824 1.43566 25.9636C1.14466 25.6566 0.972656 25.1796 0.972656 24.5596V2.44362C0.972656 1.82463 1.14466 1.34662 1.43566 1.03863C1.50623 0.969193 1.5031 0.972057 1.49998 0.974939C1.47793 0.995285 1.45648 1.01652 1.43566 1.03863L13.8987 13.5016L1.43566 25.9636L18.1217 9.27763L13.8987 13.5016L1.49998 0.974939Z" fill="white"/>
</svg>
