<svg width="184" height="59" viewBox="0 0 184 59" fill="none" xmlns="http://www.w3.org/2000/svg">
<rect y="0.500488" width="184" height="58" rx="4" fill="#D8D8D8"/>
<mask id="mask0_70_4366" style="mask-type:luminance" maskUnits="userSpaceOnUse" x="0" y="0" width="184" height="59">
<rect y="0.500488" width="184" height="58" rx="4" fill="white"/>
</mask>
<g mask="url(#mask0_70_4366)">
<rect y="0.500488" width="184" height="58" rx="10" fill="url(#paint0_linear_70_4366)"/>
</g>
<path fill-rule="evenodd" clip-rule="evenodd" d="M131.936 39.5006H133.801V26.9996H131.936V39.5006ZM148.743 31.5026L146.604 36.9226H146.54L144.32 31.5026H142.31L145.64 39.0776L143.741 43.2916H145.687L150.818 31.5026H148.743ZM138.16 38.0806C137.55 38.0806 136.697 37.7746 136.697 37.0186C136.697 36.0546 137.759 35.6836 138.676 35.6836C139.495 35.6836 139.882 35.8616 140.38 36.1016C140.235 37.2606 139.238 38.0806 138.16 38.0806ZM138.386 31.2286C137.035 31.2286 135.636 31.8246 135.057 33.1426L136.713 33.8346C137.067 33.1426 137.726 32.9176 138.418 32.9176C139.383 32.9176 140.364 33.4966 140.38 34.5256V34.6546C140.042 34.4616 139.318 34.1726 138.434 34.1726C136.648 34.1726 134.831 35.1536 134.831 36.9866C134.831 38.6596 136.295 39.7376 137.935 39.7376C139.189 39.7376 139.882 39.1746 140.315 38.5146H140.38V39.4796H142.182V34.6866C142.182 32.4676 140.524 31.2286 138.386 31.2286ZM126.854 33.0246H124.2V28.7396H126.854C128.249 28.7396 129.041 29.8936 129.041 30.8816C129.041 31.8506 128.249 33.0246 126.854 33.0246ZM126.806 26.9986H122.335V39.5006H124.2V34.7646H126.806C128.874 34.7646 130.907 33.2666 130.907 30.8816C130.907 28.4966 128.874 26.9986 126.806 26.9986ZM102.425 38.0826C101.136 38.0826 100.057 37.0036 100.057 35.5216C100.057 34.0226 101.136 32.9276 102.425 32.9276C103.697 32.9276 104.696 34.0226 104.696 35.5216C104.696 37.0036 103.697 38.0826 102.425 38.0826ZM104.567 32.2026H104.503C104.084 31.7036 103.278 31.2516 102.264 31.2516C100.137 31.2516 98.187 33.1206 98.187 35.5216C98.187 37.9056 100.137 39.7586 102.264 39.7586C103.278 39.7586 104.084 39.3076 104.503 38.7916H104.567V39.4036C104.567 41.0316 103.697 41.9006 102.296 41.9006C101.152 41.9006 100.443 41.0796 100.153 40.3866L98.526 41.0636C98.993 42.1906 100.233 43.5766 102.296 43.5766C104.487 43.5766 106.34 42.2876 106.34 39.1456V31.5096H104.567V32.2026ZM107.629 39.5006H109.497V26.9996H107.629V39.5006ZM112.252 35.3766C112.204 33.7326 113.525 32.8956 114.475 32.8956C115.217 32.8956 115.845 33.2666 116.055 33.7976L112.252 35.3766ZM118.052 33.9586C117.697 33.0086 116.618 31.2516 114.411 31.2516C112.22 31.2516 110.399 32.9756 110.399 35.5056C110.399 37.8896 112.204 39.7586 114.62 39.7586C116.569 39.7586 117.697 38.5666 118.165 37.8736L116.715 36.9066C116.231 37.6156 115.571 38.0826 114.62 38.0826C113.67 38.0826 112.993 37.6476 112.559 36.7936L118.245 34.4416L118.052 33.9586ZM72.744 32.5576V34.3616H77.061C76.933 35.3766 76.594 36.1176 76.079 36.6326C75.45 37.2616 74.467 37.9546 72.744 37.9546C70.085 37.9546 68.007 35.8116 68.007 33.1536C68.007 30.4956 70.085 28.3516 72.744 28.3516C74.178 28.3516 75.225 28.9156 75.998 29.6416L77.271 28.3686C76.191 27.3376 74.758 26.5476 72.744 26.5476C69.102 26.5476 66.041 29.5126 66.041 33.1536C66.041 36.7936 69.102 39.7586 72.744 39.7586C74.709 39.7586 76.191 39.1136 77.351 37.9056C78.543 36.7136 78.914 35.0376 78.914 33.6846C78.914 33.2666 78.882 32.8796 78.817 32.5576H72.744ZM83.822 38.0826C82.534 38.0826 81.422 37.0196 81.422 35.5056C81.422 33.9746 82.534 32.9276 83.822 32.9276C85.111 32.9276 86.223 33.9746 86.223 35.5056C86.223 37.0196 85.111 38.0826 83.822 38.0826ZM83.822 31.2516C81.47 31.2516 79.553 33.0406 79.553 35.5056C79.553 37.9546 81.47 39.7586 83.822 39.7586C86.175 39.7586 88.092 37.9546 88.092 35.5056C88.092 33.0406 86.175 31.2516 83.822 31.2516ZM93.136 38.0826C91.847 38.0826 90.735 37.0196 90.735 35.5056C90.735 33.9746 91.847 32.9276 93.136 32.9276C94.425 32.9276 95.536 33.9746 95.536 35.5056C95.536 37.0196 94.425 38.0826 93.136 38.0826ZM93.136 31.2516C90.784 31.2516 88.867 33.0406 88.867 35.5056C88.867 37.9546 90.784 39.7586 93.136 39.7586C95.488 39.7586 97.405 37.9546 97.405 35.5056C97.405 33.0406 95.488 31.2516 93.136 31.2516Z" fill="white"/>
<path fill-rule="evenodd" clip-rule="evenodd" d="M71.6735 21.7467C72.1705 21.2487 72.4185 20.5817 72.4185 19.7437C72.4185 19.5977 72.4045 19.4477 72.3765 19.2907H69.4695V20.0117H71.6475C71.6035 20.5317 71.4355 20.9357 71.1455 21.2267C70.6975 21.6737 70.1395 21.8967 69.4695 21.8967C68.8375 21.8967 68.2915 21.6757 67.8305 21.2307C67.3695 20.7867 67.1395 20.2097 67.1395 19.5007C67.1395 18.7907 67.3695 18.2147 67.8305 17.7697C68.2915 17.3257 68.8375 17.1037 69.4695 17.1037C70.1675 17.1037 70.7145 17.3417 71.1115 17.8157L71.6395 17.2877C71.4045 17.0087 71.0915 16.7857 70.7005 16.6177C70.3105 16.4507 69.8985 16.3667 69.4695 16.3667C68.6035 16.3667 67.8665 16.6667 67.2615 17.2667C66.6545 17.8677 66.3525 18.6117 66.3525 19.5007C66.3525 20.3887 66.6545 21.1337 67.2615 21.7337C67.8665 22.3347 68.6035 22.6347 69.4695 22.6347C70.3735 22.6347 71.1085 22.3387 71.6735 21.7467ZM74.2958 17.2378H77.0278V16.5008H73.5248V22.5008H77.0278V21.7628H74.2958V19.8608H76.7588V19.1398H74.2958V17.2378ZM80.2788 22.5005H79.5078V17.2375H77.8318V16.5005H81.9548V17.2375H80.2788V22.5005ZM85.7091 22.5006H84.9381V16.5006H85.7091V22.5006ZM89.1284 22.5005H88.3574V17.2375H86.6814V16.5005H90.8044V17.2375H89.1284V22.5005ZM96.4093 22.6347C97.2863 22.6347 98.0193 22.3317 98.6093 21.7247C99.1983 21.1187 99.4933 20.3777 99.4933 19.5007C99.4933 18.6287 99.1973 17.8887 98.6053 17.2797C98.0123 16.6707 97.2813 16.3667 96.4093 16.3667C95.5323 16.3667 94.7993 16.6697 94.2103 17.2757C93.6203 17.8817 93.3263 18.6237 93.3263 19.5007C93.3263 20.3777 93.6203 21.1187 94.2103 21.7247C94.7993 22.3317 95.5323 22.6347 96.4093 22.6347ZM94.7793 21.2227C95.2233 21.6727 95.7663 21.8967 96.4093 21.8967C97.0513 21.8967 97.5953 21.6727 98.0393 21.2227C98.4833 20.7727 98.7063 20.1987 98.7063 19.5007C98.7063 18.8027 98.4833 18.2277 98.0393 17.7787C97.5953 17.3287 97.0513 17.1037 96.4093 17.1037C95.7663 17.1037 95.2233 17.3287 94.7793 17.7787C94.3363 18.2277 94.1133 18.8027 94.1133 19.5007C94.1133 20.1987 94.3363 20.7727 94.7793 21.2227ZM100.575 16.5005V22.5005H101.346V18.7635L101.312 17.6065H101.346L104.396 22.5005H105.201V16.5005H104.429V20.0115L104.463 21.1675H104.429L101.513 16.5005H100.575Z" fill="white"/>
<path fill-rule="evenodd" clip-rule="evenodd" d="M35.5 16.9749C35.4969 16.9778 35.4937 16.9807 35.4906 16.9836L35.5087 16.9656C35.7443 16.7539 36.0461 16.6406 36.3927 16.6406C36.7307 16.6406 37.1117 16.7486 37.5137 16.9776L52.1217 25.2776L57.0147 28.0576C58.4117 28.8516 58.4117 30.1516 57.0147 30.9466L52.1217 33.7266L52.0549 33.7635L37.5137 42.0256C36.9065 42.3706 36.3475 42.4406 35.9097 42.2786C35.7614 42.2237 35.6271 42.1423 35.5094 42.0359L35.4901 42.0181C35.4715 42.0006 35.4534 41.9824 35.4357 41.9636C35.1447 41.6566 34.9727 41.1796 34.9727 40.5596V18.4436C34.9727 17.8246 35.1447 17.3466 35.4357 17.0386C35.5062 16.9692 35.5031 16.9721 35.5 16.9749C35.4779 16.9953 35.4565 17.0165 35.4357 17.0386L47.8987 29.5016L35.4357 41.9636L52.1217 25.2776L47.8987 29.5016L35.5 16.9749Z" fill="white"/>
<defs>
<linearGradient id="paint0_linear_70_4366" x1="202.4" y1="7.75051" x2="-11.518" y2="140.893" gradientUnits="userSpaceOnUse">
<stop stop-color="#DF0024"/>
<stop offset="1" stop-color="#FF3858"/>
</linearGradient>
</defs>
</svg>
