<svg width="20" height="20" viewBox="0 0 20 20" fill="none" xmlns="http://www.w3.org/2000/svg">
<path d="M17.2883 10.8204V17.5704C17.2883 17.7693 17.2093 17.9601 17.0687 18.1008C16.928 18.2414 16.7372 18.3204 16.5383 18.3204H3.03833C2.83942 18.3204 2.64865 18.2414 2.508 18.1008C2.36735 17.9601 2.28833 17.7693 2.28833 17.5704V10.8204M9.78833 6.32042V18.3204M9.78833 6.32042C9.78833 6.32042 12.9703 6.32042 14.031 5.25976C14.4525 4.83772 14.6892 4.26555 14.6891 3.66904C14.6889 3.07252 14.4519 2.50049 14.0301 2.07869C13.6083 1.65689 13.0362 1.41985 12.4397 1.41968C11.8432 1.41951 11.271 1.65622 10.849 2.07778C9.78833 3.13844 9.78833 6.32042 9.78833 6.32042ZM9.78833 6.32042C9.78833 6.32042 6.60635 6.32042 5.54569 5.25976C5.12413 4.83772 4.88742 4.26555 4.88759 3.66904C4.88775 3.07252 5.1248 2.50049 5.5466 2.07869C5.9684 1.65689 6.54043 1.41985 7.13695 1.41968C7.73346 1.41951 8.30563 1.65622 8.72767 2.07778C9.78833 3.13844 9.78833 6.32042 9.78833 6.32042ZM1.53833 6.32042H18.0383C18.4525 6.32042 18.7883 6.65621 18.7883 7.07042V10.0704C18.7883 10.4846 18.4525 10.8204 18.0383 10.8204H1.53833C1.12412 10.8204 0.78833 10.4846 0.78833 10.0704V7.07042C0.78833 6.65621 1.12412 6.32042 1.53833 6.32042Z" stroke="#10132E" stroke-width="1.5" stroke-linecap="round" stroke-linejoin="round"/>
</svg>
