<svg width="31" height="25" viewBox="0 0 31 25" fill="none" xmlns="http://www.w3.org/2000/svg">
<path d="M28.5417 15L25 11.4583L26.2083 10.25C26.5139 9.94444 26.9028 9.79167 27.375 9.79167C27.8472 9.79167 28.2361 9.94444 28.5417 10.25L29.75 11.4583C30.0556 11.7639 30.2083 12.1528 30.2083 12.625C30.2083 13.0972 30.0556 13.4861 29.75 13.7917L28.5417 15ZM15 25V21.4583L23.8333 12.625L27.375 16.1667L18.5417 25H15ZM0 16.6667V13.3333H11.6667V16.6667H0ZM0 10V6.66667H18.3333V10H0ZM0 3.33333V0H18.3333V3.33333H0Z" fill="#DF0024"/>
</svg>
