<svg width="28" height="30" viewBox="0 0 28 30" fill="none" xmlns="http://www.w3.org/2000/svg">
<path d="M11.5003 19.1663V20.833C11.5003 21.5275 11.7437 22.118 12.2303 22.6047C12.717 23.0913 13.307 23.3341 14.0003 23.333C14.6948 23.333 15.2853 23.0897 15.772 22.603C16.2587 22.1163 16.5014 21.5263 16.5003 20.833V19.1663H18.167C18.8614 19.1663 19.452 18.923 19.9387 18.4363C20.4253 17.9497 20.6681 17.3597 20.667 16.6663C20.667 15.9719 20.4237 15.3813 19.937 14.8947C19.4503 14.408 18.8603 14.1652 18.167 14.1663H16.5003V12.4997C16.5003 11.8052 16.257 11.2147 15.7703 10.728C15.2837 10.2413 14.6937 9.99856 14.0003 9.99967C13.3059 9.99967 12.7153 10.243 12.2287 10.7297C11.742 11.2163 11.4992 11.8063 11.5003 12.4997V14.1663H9.83366C9.13922 14.1663 8.54866 14.4097 8.062 14.8963C7.57533 15.383 7.33255 15.973 7.33366 16.6663C7.33366 17.3608 7.57699 17.9513 8.06366 18.438C8.55033 18.9247 9.14033 19.1675 9.83366 19.1663H11.5003ZM4.00033 29.9997C3.08366 29.9997 2.29866 29.673 1.64533 29.0197C0.991995 28.3663 0.665884 27.5819 0.666995 26.6663V11.6663C0.666995 11.1386 0.785328 10.6386 1.02199 10.1663C1.25866 9.69412 1.58477 9.30523 2.00033 8.99967L12.0003 1.49967C12.5837 1.05523 13.2503 0.833008 14.0003 0.833008C14.7503 0.833008 15.417 1.05523 16.0003 1.49967L26.0003 8.99967C26.417 9.30523 26.7437 9.69412 26.9803 10.1663C27.217 10.6386 27.3348 11.1386 27.3337 11.6663V26.6663C27.3337 27.583 27.007 28.368 26.3537 29.0213C25.7003 29.6747 24.9159 30.0008 24.0003 29.9997H4.00033ZM4.00033 26.6663H24.0003V11.6663L14.0003 4.16634L4.00033 11.6663V26.6663Z" fill="#DF0024"/>
</svg>
