<svg width="38" height="36" viewBox="0 0 38 36" fill="none" xmlns="http://www.w3.org/2000/svg">
<path d="M12.2575 33.9748C9.95194 33.9748 7.98638 33.1621 6.36082 31.5365C4.73527 29.911 3.92305 27.946 3.92416 25.6415V10.6415C3.00749 10.6415 2.22249 10.3148 1.56916 9.66151C0.915823 9.00818 0.589712 8.22373 0.590823 7.30818V3.97485C0.590823 3.05818 0.91749 2.27318 1.57082 1.61985C2.22416 0.966513 3.0086 0.640402 3.92416 0.641513H20.5908C21.5075 0.641513 22.2925 0.96818 22.9458 1.62151C23.5992 2.27485 23.9253 3.05929 23.9242 3.97485V7.30818C23.9242 8.22485 23.5975 9.00985 22.9442 9.66318C22.2908 10.3165 21.5064 10.6426 20.5908 10.6415V15.6832C19.4242 16.4332 18.4308 17.371 17.6108 18.4965C16.7908 19.6221 16.2147 20.8926 15.8825 22.3082H12.2575V18.9748H17.2575V17.3082H12.2575V13.9748H17.2575V10.6415H7.25749V25.6415C7.25749 27.0304 7.7436 28.211 8.71582 29.1832C9.68805 30.1554 10.8686 30.6415 12.2575 30.6415C13.0908 30.6415 13.8547 30.461 14.5492 30.0998C15.2436 29.7387 15.8269 29.2387 16.2992 28.5998C16.5214 29.1554 16.7714 29.6832 17.0492 30.1832C17.3269 30.6832 17.6603 31.1693 18.0492 31.6415C17.2992 32.3637 16.4308 32.9332 15.4442 33.3498C14.4575 33.7665 13.3953 33.9748 12.2575 33.9748ZM12.2575 27.3082V23.9748H15.6325C15.5769 24.5304 15.5697 25.086 15.6108 25.6415C15.6519 26.1971 15.7425 26.7526 15.8825 27.3082H12.2575ZM26.4242 28.9748C27.5908 28.9748 28.5769 28.5721 29.3825 27.7665C30.188 26.961 30.5908 25.9748 30.5908 24.8082C30.5908 23.6415 30.188 22.6554 29.3825 21.8498C28.5769 21.0443 27.5908 20.6415 26.4242 20.6415C25.2575 20.6415 24.2714 21.0443 23.4658 21.8498C22.6603 22.6554 22.2575 23.6415 22.2575 24.8082C22.2575 25.9748 22.6603 26.961 23.4658 27.7665C24.2714 28.5721 25.2575 28.9748 26.4242 28.9748ZM34.9242 35.6415L30.4242 31.1415C29.813 31.5304 29.1742 31.8221 28.5075 32.0165C27.8408 32.211 27.1464 32.3082 26.4242 32.3082C24.3408 32.3082 22.5703 31.5787 21.1125 30.1198C19.6547 28.661 18.9253 26.8904 18.9242 24.8082C18.9242 22.7248 19.6536 20.9537 21.1125 19.4948C22.5714 18.036 24.3419 17.3071 26.4242 17.3082C28.5075 17.3082 30.2786 18.0376 31.7375 19.4965C33.1964 20.9554 33.9253 22.726 33.9242 24.8082C33.9242 25.5304 33.8269 26.2248 33.6325 26.8915C33.438 27.5582 33.1464 28.1971 32.7575 28.8082L37.2575 33.3082L34.9242 35.6415Z" fill="#DF0024"/>
</svg>
