<svg width="13" height="12" viewBox="0 0 13 12" fill="none" xmlns="http://www.w3.org/2000/svg">
<path fill-rule="evenodd" clip-rule="evenodd" d="M11.2755 4.58058V0.75H10.2959V4.58058H9.82143C9.40721 4.58058 9.07143 4.91637 9.07143 5.33058V6.80992C9.07143 7.22414 9.40721 7.55992 9.82143 7.55992H10.2959V11.0357H11.2755V7.55992H11.75C12.1642 7.55992 12.5 7.22414 12.5 6.80992V5.33058C12.5 4.91637 12.1642 4.58058 11.75 4.58058H11.2755ZM6.9898 0.75H6.0102V2.3105H5.53571C5.1215 2.3105 4.78571 2.64629 4.78571 3.0605V4.53984C4.78571 4.95406 5.1215 5.28984 5.53571 5.28984H6.0102V11.0357H6.9898V5.28984H7.46428C7.8785 5.28984 8.21428 4.95406 8.21428 4.53984V3.0605C8.21428 2.64629 7.8785 2.3105 7.46428 2.3105H6.9898V0.75ZM2.70408 6.48462V0.75H1.72449V6.48462H1.25C0.835786 6.48462 0.5 6.82041 0.5 7.23462V8.70813C0.5 9.12234 0.835786 9.45813 1.25 9.45813H1.72449V11.0314L2.70408 11.0357V9.45813H3.17857C3.59278 9.45813 3.92857 9.12234 3.92857 8.70813V7.23462C3.92857 6.82041 3.59278 6.48462 3.17857 6.48462H2.70408Z" fill="#DF0024"/>
</svg>
