<svg width="32" height="32" viewBox="0 0 32 32" fill="none" xmlns="http://www.w3.org/2000/svg">
<path d="M16 31C24.2843 31 31 24.2843 31 16C31 7.71573 24.2843 1 16 1C7.71573 1 1 7.71573 1 16C1 24.2843 7.71573 31 16 31Z" fill="#699635"/>
<path d="M15.8506 13.35C15.8006 12.9 16.0506 12.45 16.5006 12.55C16.8506 12.6 17.2506 12.95 17.0506 13.3C16.7506 13.85 15.9506 13.85 15.4506 14.15C15.5006 14.45 16.9506 14.1 17.2006 14.1C17.4506 14.1 17.7006 14.2 17.5506 14.5C17.4006 14.8 16.9006 14.8 16.6006 14.85C16.3006 14.9 15.8006 14.9 15.6506 15.15C15.3506 15.55 15.9506 15.6 16.1506 15.7C16.6506 15.95 15.8506 16.2 15.6506 16.15C14.9006 16 14.7506 15.6 14.3006 15.1C13.8506 15.7 12.4506 17.05 12.1506 15.65C11.6506 15.85 11.1506 16.1 10.6006 16.15C10.8506 15.8 11.3506 15.65 11.7506 15.45C12.2506 15.2 12.2506 14.75 12.5506 14.35C12.6506 14.5 12.5506 14.7 12.6006 14.9C13.0006 14.7 13.5006 14.3 13.3006 13.8C13.3006 13.75 12.7006 12.55 13.2006 12.75C13.6506 12.95 13.5006 13.4 13.6006 13.75C13.7506 14.4 13.4506 14.75 12.9506 15.15C12.7506 15.3 12.2006 15.9 12.8506 15.9C13.3006 15.9 13.7006 15.4 13.9506 15.1C14.2506 14.7 14.1506 14.3 13.9506 13.85C13.8006 13.5 13.4506 12.75 13.9006 12.5C14.2506 13.05 14.4006 13.7 14.5506 14.35C14.6506 14.9 14.7506 15.45 15.3506 15.6C15.3006 15.2 15.5506 14.9 15.9006 14.75C15.6506 14.55 14.2506 14.8 14.8006 14.05C14.8506 13.7 15.8506 13.55 15.8506 13.35Z" fill="white"/>
<path d="M8.2003 15.1999C8.4503 15.8999 9.3003 15.6499 9.8003 15.4499C10.6003 15.0499 10.6003 14.4499 10.6003 13.6499C10.3003 13.7999 10.3503 14.3499 10.2503 14.5999C10.0503 14.9999 9.4003 15.3499 8.9503 15.2999C8.3003 15.1999 8.0003 14.0999 8.5003 13.6999C8.6003 14.0499 8.3503 14.7999 8.9503 14.8499C9.4003 14.8999 10.3003 14.3499 10.1503 13.8499C9.5503 14.0499 9.2003 13.8499 9.4003 13.1999C9.5503 12.5999 10.1503 13.0499 10.4003 13.3499C11.3503 12.7999 9.6503 10.6999 10.6503 10.1499C10.8503 10.4999 11.1503 10.9499 10.9003 11.2999C10.6003 11.6999 10.9003 12.5499 10.9503 12.9999C11.4503 12.5499 11.0503 13.3499 11.4503 13.3999C11.7003 13.4499 11.8003 12.7999 11.9503 12.7999C12.0003 12.9499 12.0003 13.3999 12.2503 13.3499C12.5503 13.2499 12.2003 12.8499 12.5003 12.7499C12.6003 12.9999 12.5503 13.7499 12.2003 13.6999C11.9003 13.6499 11.9503 13.4499 11.6003 13.6499C11.3003 13.7999 11.2003 13.6499 11.0003 13.4999C10.9503 14.0999 11.1503 14.7499 10.8003 15.2999C10.5003 15.7499 9.9003 15.9999 9.4003 16.0999C8.1003 16.3499 7.7503 15.0499 8.2003 13.9999C8.3003 14.2999 8.1003 14.8499 8.2003 15.1999Z" fill="white"/>
<path d="M20.4 15.4501C20.65 16.1001 21.15 14.7501 21.3 14.5501C21.7 13.9501 22.3 15.5001 22.55 14.5001C22.7 13.8501 22.5 13.2001 22.45 12.5501C22.4 12.1001 22.25 11.7001 21.95 11.3501C21.65 10.9501 21.35 10.6001 21.5 10.1001C22 10.3001 22 10.7001 22.25 11.1001C22.3 10.8001 22.1 10.4001 22.3 10.1501C22.55 9.80006 22.75 10.7501 22.75 10.8501C22.8 11.1001 22.55 11.2001 22.7 11.6001C22.8 11.9001 23 12.2001 23.2 12.4501C23.15 12.1501 22.7 10.1001 23.2 10.1001C23.35 10.1001 23.5 10.7001 23.5 10.8001C23.6 11.1001 23.4 11.3501 23.4 11.7001C23.35 12.3001 23.45 13.0001 23.85 13.4501C24.05 13.7001 24.8 14.6001 24.4 14.9001C24.1 14.5501 23.9 14.1501 23.65 13.8001C23.65 14.2001 23.75 14.6501 23.55 14.9501C23.35 14.8501 23.45 14.2001 23.45 14.0501C23.45 13.5001 23.1 13.0501 22.8 12.6001C22.7 13.3501 23.3 14.7501 22.6 15.3001C22.15 15.7001 21.55 14.8001 21.4 15.1501C21.25 15.4001 20.9 16.3001 20.5 16.2001C20 16.1001 19.65 14.7001 20.2 14.5501C20.25 14.8001 20.25 15.1501 20.4 15.4501Z" fill="white"/>
<path d="M9.70043 12.0499C10.0504 12.0999 9.70043 10.8999 9.70043 10.6999C9.75043 10.4999 9.90043 10.3999 10.0004 10.5999C10.1504 10.8999 10.1504 11.2499 10.2004 11.5499C10.2004 11.7999 10.2504 12.0999 10.0504 12.2999C9.75043 12.5999 9.35043 12.4499 9.20043 12.0499C8.50043 12.6499 9.40043 13.6999 8.80043 14.2999C8.70043 13.7499 8.80043 13.1499 8.60043 12.6499C8.50043 12.3999 8.05043 12.4999 8.00043 12.0499C8.00043 11.8499 8.15043 11.2999 7.95043 11.1499C7.85043 11.3499 7.75043 12.8999 7.25043 12.4499C6.85043 12.1499 6.95043 11.1499 7.10043 10.7499C7.40043 10.8999 7.05043 11.9999 7.45043 12.0499C7.65043 12.0999 7.70043 11.2499 7.75043 11.0999C7.90043 10.8499 8.40043 10.1499 8.30043 10.8499C8.25043 11.1499 8.00043 12.0999 8.60043 12.0499C8.55043 11.5499 8.50043 11.0499 8.40043 10.5499C8.35043 10.2999 8.50043 9.79993 8.70043 10.2499C8.85043 10.5499 8.75043 10.6999 8.70043 10.9999C8.65043 11.3499 8.80043 11.6999 8.85043 11.9999C9.15043 11.7499 8.75043 10.7999 9.00043 10.3999C9.60043 10.7499 8.95043 11.9499 9.70043 12.0499Z" fill="white"/>
<path d="M16.1502 12.15C15.9002 12.5 15.4502 12.2 15.2502 11.95C15.0002 12.25 14.5002 12.75 14.1002 12.35C13.8002 12.05 14.1502 11.5 13.9002 11.25C13.7502 11.5 13.5002 12.7 13.0502 12.15C12.8002 11.85 12.4502 10.8 13.0002 10.55C12.9502 10.95 12.8502 11.4 13.1002 11.75C13.3502 12.1 13.6002 11.2 13.7002 11C13.8502 10.65 14.3502 10.05 14.2502 10.8C14.2002 11.1 14.1002 11.8 14.4002 12C14.6002 12.15 14.8502 11.9 14.9502 11.75C15.1502 11.5 15.0502 11.1 15.0002 10.8C14.9502 10.55 14.8502 10.25 15.0002 9.99996C15.2002 9.69996 15.3502 10.4 15.3502 10.55C15.3502 10.7 15.5502 12.25 15.9002 11.75C16.2502 11.3 15.3002 10.3 15.9502 10.05C16.2002 9.94996 16.6502 10.95 16.1502 10.65C16.3002 11.1 16.5002 11.75 16.1502 12.15Z" fill="white"/>
<path d="M18.0505 12.75C18.1005 13.4 18.6505 15.2 17.9005 15.6C17.8005 15.4 17.9005 15.1 17.9505 14.85C18.0005 14.4 17.9005 13.95 17.8505 13.55C17.7505 12.6 17.6505 11.9 17.0005 11.15C16.8505 10.95 16.6005 10.8 16.5505 10.5C16.5505 10.4 16.5005 9.95005 16.7005 10.05C16.8505 10.1 17.7005 10.85 17.2505 10.85C17.3005 10.95 17.5005 11.35 17.6005 11.35C17.6005 11.1 17.3005 10.35 17.6005 10.2C17.8505 10.05 18.1505 11 18.0505 11.2C17.9505 11.45 17.9505 11.6 18.0505 11.95C18.1505 12.35 18.4005 12.7 18.6005 13.05C18.9005 13.55 19.5005 14.25 19.3505 14.9C19.0505 14.75 18.8505 14.05 18.7005 13.75C18.6005 13.5 18.5005 13.25 18.3505 13.05C18.3005 13 18.0005 12.6 18.0505 12.85V12.75Z" fill="white"/>
<path d="M25.0004 13.7C25.0504 14.75 24.7004 16.1 23.4004 16.1C23.4004 15.8 24.0504 15.5 24.2504 15.35C24.7504 14.95 24.7004 14.2 24.6504 13.65C24.6004 12.9 24.5504 12.15 24.4004 11.4C24.3504 10.95 24.1004 10.3 24.5004 10C24.7504 10.2 25.1004 10.75 24.9504 10.95C24.7004 11.25 24.9504 13.5 25.0004 13.7Z" fill="white"/>
<path d="M18.6008 15.9499C19.9008 15.1999 19.5008 13.5999 19.4008 12.3499C19.3508 11.9999 19.3508 11.6499 19.3008 11.2999C19.3008 11.0499 19.1008 10.6999 19.2008 10.4499C19.4508 9.79987 19.6508 10.3999 19.7008 10.7999C19.7508 11.0499 19.5508 11.0999 19.6008 11.2999C19.6508 11.6999 19.6508 12.0999 19.7008 12.4999C19.7508 13.1499 19.8508 13.7999 19.8008 14.3999C19.7008 15.3499 19.2008 16.3999 18.0508 16.1999C18.1008 16.0999 18.4508 16.0499 18.6008 15.9499Z" fill="white"/>
<path d="M20.7002 13.45C20.7502 13.95 20.9502 14.85 20.7002 15.3C20.5002 15.6 20.5002 15.1 20.4502 15.05C20.4002 14.65 20.4002 14.25 20.4002 13.8C20.3002 12.7 19.9502 11.6 19.9502 10.55C19.9502 9.20003 21.1002 11.3 20.4502 11.2C20.5002 11.95 20.6002 12.7 20.7002 13.45Z" fill="white"/>
<path d="M12.55 10.9C12.65 11.15 11.4 11.8 11.25 11.8C11.2 11.55 11.8 11.2 11.95 11.1C12.1 10.95 12.2 10.95 12.15 10.75C12.05 10.55 12.1 10.2 12.35 10.1C12.85 9.95001 12.5 10.7 12.55 10.9Z" fill="white"/>
<path d="M7.40052 15.35C7.40052 15.75 7.55052 15.55 7.75052 15.45C7.85052 15.65 7.60052 16.2 7.35052 15.95C7.00052 15.6 7.30052 14.8 7.45052 14.45C7.55052 14.7 7.35052 15.1 7.40052 15.35Z" fill="white"/>
<path d="M21.5007 12.2501C21.5507 12.0501 21.4007 11.8501 21.5507 11.6501C21.7507 11.4001 21.9507 11.7001 21.8507 11.8001C21.7507 11.9001 21.6007 11.7001 21.6007 12.0001C21.6007 12.1501 21.7007 12.4501 21.5507 12.6001C21.4507 12.5501 21.0007 11.9001 21.0507 11.8001C21.2507 11.6001 21.4507 12.2001 21.5007 12.2501Z" fill="white"/>
<path d="M8.45039 13.1C8.35039 13.3 7.20039 13.95 7.15039 13.8C7.15039 13.65 8.60039 12.8 8.45039 13.1Z" fill="white"/>
<path d="M16.9502 15.6499C16.8002 16.0999 17.4502 15.6999 17.6002 15.6499C17.4002 15.9999 16.7002 16.2999 16.8002 15.6499C16.7502 15.6499 16.6502 15.6999 16.6002 15.6999C16.5002 15.5999 17.1002 15.1999 16.9502 15.6499Z" fill="white"/>
<path d="M22.4 15.5C22.55 15.5 22.8 15.95 22.65 16.05C22.55 16.15 22.1 16.2 22.35 16C22.65 15.7 22.4 15.5 22.4 15.5Z" fill="white"/>
<path d="M15.3504 12.9499C15.4004 12.8499 15.4004 12.6999 15.4504 12.5999C15.9504 12.9999 14.6504 13.6499 14.9004 12.6999C15.0004 12.7999 15.0004 12.9499 15.1004 12.9999C15.1004 12.8999 15.1504 12.7499 15.1504 12.6499C15.2504 12.7499 15.2504 12.8999 15.3504 12.9499Z" fill="white"/>
<path d="M21.2004 13.6C21.0504 13.4 21.9504 12.85 22.1004 12.75C22.2004 12.9 21.5004 13.45 21.2004 13.6Z" fill="white"/>
<path d="M24.0004 11.6C23.9004 11.3 23.6004 10.7 23.9004 10.45C24.1004 10.6 24.2004 11.35 24.0004 11.6Z" fill="white"/>
<path d="M18.5506 10.6C18.5006 10.5 18.3506 10.4 18.3506 10.25C18.4006 10.05 18.5006 10.1 18.6006 10.2C18.7506 10.4 18.8506 10.95 18.6006 11.1C18.6006 10.95 18.6506 10.75 18.5506 10.6Z" fill="white"/>
<path d="M12.4501 11.9499C12.4501 12.2499 11.9501 12.5499 11.9001 12.1499C11.8501 11.9999 12.1001 11.4499 12.2001 11.5999C12.0001 12.0499 12.0001 12.1999 12.4501 11.9499Z" fill="white"/>
<path d="M18.7002 11.3999C18.9002 11.8999 18.8002 11.4499 19.0002 11.3499C19.3502 11.9999 18.2502 11.8499 18.5002 11.4499C18.5502 11.4999 18.6002 11.5999 18.6002 11.6499C18.6502 11.5999 18.6502 11.4999 18.7002 11.3999Z" fill="white"/>
<path d="M21.9007 13.6999C21.6507 13.4999 21.9507 13.2499 22.1007 13.4999C22.2007 13.6499 22.2007 14.0499 22.0007 14.1499C22.0007 13.9999 22.0507 13.7999 21.9007 13.6999Z" fill="white"/>
<path d="M11.6506 14.7999C11.6506 14.6999 11.6006 13.9499 11.7506 14.0499C11.9506 14.1499 11.9006 14.6999 11.6506 14.7999Z" fill="white"/>
<path d="M9.54996 10.1C9.59996 10.25 9.64996 10.45 9.74996 10.2C10.15 10.65 8.74996 10.5 9.24996 10.05C9.24996 10.1 9.34996 10.4 9.54996 10.1Z" fill="white"/>
<path d="M14.6505 11.1999C14.6505 10.9999 14.3505 10.1499 14.6005 10.1499C14.9005 10.1999 14.8505 10.9499 14.6505 11.1999Z" fill="white"/>
<path d="M7.65021 10.75C7.50021 10.7 7.75021 10.45 7.65021 10.25C7.55021 10.3 7.45021 10.15 7.55021 10.05C7.95021 9.75004 7.80021 10.75 7.65021 10.75Z" fill="white"/>
<path d="M20.6 20.9L20.4 20.3L20.2 20.9H9.25C9.25 20.9 9.35 21.8 10.45 21.8H20.15V22.5H22.8V20.9H20.6ZM22.3 22.1H20.5V21.6H22.3V22.1Z" fill="white"/>
</svg>
