<svg width="32" height="32" viewBox="0 0 32 32" fill="none" xmlns="http://www.w3.org/2000/svg">
<path d="M28 7.97331C23.56 7.53331 19.0933 7.30664 14.64 7.30664C12 7.30664 9.36 7.43997 6.72 7.70664L4 7.97331" stroke="#C90020" stroke-width="1.5" stroke-linecap="round" stroke-linejoin="round"/>
<path d="M11.333 6.62602L11.6263 4.87935C11.8397 3.61268 11.9997 2.66602 14.253 2.66602H17.7463C19.9997 2.66602 20.173 3.66602 20.373 4.89268L20.6663 6.62602" stroke="#C90020" stroke-width="1.5" stroke-linecap="round" stroke-linejoin="round"/>
<path d="M25.1329 12.1875L24.2662 25.6142C24.1195 27.7075 23.9995 29.3342 20.2795 29.3342H11.7195C7.99954 29.3342 7.87954 27.7075 7.73288 25.6142L6.86621 12.1875" stroke="#C90020" stroke-width="1.5" stroke-linecap="round" stroke-linejoin="round"/>
<path d="M13.7734 22H18.2134" stroke="#C90020" stroke-width="1.5" stroke-linecap="round" stroke-linejoin="round"/>
<path d="M12.667 16.666H19.3337" stroke="#C90020" stroke-width="1.5" stroke-linecap="round" stroke-linejoin="round"/>
</svg>
