<svg width="18" height="15" viewBox="0 0 18 15" fill="none" xmlns="http://www.w3.org/2000/svg">
<path d="M12.0271 0.201972V0.19873H12.8711L13.1794 0.260322C13.385 0.300309 13.5717 0.35271 13.7394 0.417544C13.9071 0.482378 14.0694 0.558022 14.2263 0.644462C14.3832 0.730901 14.5255 0.818978 14.6532 0.908659C14.7798 0.99727 14.8934 1.09128 14.9941 1.19069C15.0936 1.29118 15.2489 1.31711 15.4599 1.26849C15.6709 1.21986 15.8981 1.15232 16.1416 1.06588C16.385 0.979441 16.6258 0.88219 16.8638 0.774129C17.1019 0.666068 17.2469 0.597457 17.2988 0.568282C17.3497 0.538037 17.3768 0.521829 17.38 0.519657L17.3832 0.514794L17.3995 0.50669L17.4157 0.498586L17.4319 0.490482L17.4482 0.482378L17.4514 0.477515L17.4563 0.474273L17.4612 0.471032L17.4644 0.466169L17.4806 0.461307L17.4968 0.458065L17.4936 0.482378L17.4887 0.50669L17.4806 0.531003L17.4725 0.555315L17.4644 0.571524L17.4563 0.587732L17.4482 0.612045C17.4427 0.628253 17.4373 0.649859 17.4319 0.676879C17.4265 0.703898 17.3751 0.811943 17.2777 1.00105C17.1803 1.19015 17.0586 1.38194 16.9125 1.57645C16.7665 1.77095 16.6355 1.91789 16.5198 2.01731C16.4029 2.11781 16.3255 2.18804 16.2876 2.22802C16.2498 2.26908 16.2038 2.30689 16.1497 2.34148L16.0685 2.39497L16.0523 2.40307L16.0361 2.41118L16.0328 2.41604L16.028 2.41928L16.0231 2.42252L16.0198 2.42739L16.0036 2.43549L15.9874 2.44359L15.9841 2.44846L15.9793 2.4517L15.9744 2.45494L15.9711 2.4598L15.9679 2.46467L15.963 2.46791L15.9582 2.47115L15.9549 2.47601H16.0361L16.4905 2.37876C16.7935 2.31393 17.083 2.23559 17.3589 2.14374L17.7971 1.99786L17.8458 1.98166L17.8702 1.97355L17.8864 1.96545L17.9026 1.95734L17.9188 1.94924L17.9351 1.94113L17.9675 1.93627L18 1.93303V1.96545L17.9919 1.96869L17.9838 1.97355L17.9805 1.97841L17.9757 1.98166L17.9708 1.9849L17.9675 1.98976L17.9643 1.99462L17.9594 1.99786L17.9546 2.00111L17.9513 2.00597L17.9481 2.01083L17.9432 2.01407L17.9351 2.03028L17.927 2.04649L17.9221 2.04973C17.9199 2.05297 17.8512 2.14481 17.716 2.32527C17.5807 2.50681 17.5077 2.59864 17.4968 2.60082C17.486 2.60406 17.4709 2.62027 17.4514 2.64944C17.433 2.67969 17.3183 2.80018 17.1073 3.01089C16.8963 3.2216 16.6897 3.40907 16.4873 3.57332C16.2839 3.73865 16.1811 3.94179 16.1789 4.18276C16.1757 4.42264 16.1632 4.69387 16.1416 4.99642C16.1199 5.29898 16.0794 5.62584 16.0198 5.97703C15.9603 6.32822 15.8684 6.72532 15.7439 7.16835C15.6195 7.61137 15.468 8.0436 15.2894 8.46502C15.1109 8.88644 14.9243 9.26463 14.7295 9.59961C14.5347 9.93459 14.3562 10.2182 14.1939 10.4505C14.0316 10.6829 13.8666 10.9017 13.6988 11.107C13.5311 11.3123 13.319 11.5435 13.0626 11.8007C12.8051 12.0568 12.6644 12.1973 12.6406 12.2221C12.6157 12.2459 12.5097 12.3345 12.3225 12.4879C12.1363 12.6425 11.9362 12.797 11.7219 12.9515C11.5088 13.105 11.3129 13.233 11.1344 13.3356C10.9558 13.4383 10.7405 13.5555 10.4884 13.6874C10.2373 13.8203 9.96573 13.9435 9.67358 14.0569C9.38142 14.1704 9.07304 14.2757 8.74842 14.373C8.42381 14.4702 8.11001 14.5459 7.80703 14.5999C7.50407 14.6539 7.16051 14.6999 6.77637 14.7377L6.20018 14.7944V14.8025H5.14518V14.7944L5.00721 14.7863C4.91525 14.7809 4.8395 14.7755 4.77998 14.7701C4.72048 14.7647 4.49594 14.735 4.1064 14.6809C3.71686 14.6269 3.41119 14.5729 3.18936 14.5189C2.96755 14.4648 2.63751 14.3622 2.19928 14.2109C1.76105 14.0596 1.38611 13.9067 1.07448 13.7522C0.763937 13.5988 0.569167 13.5015 0.490171 13.4605C0.412263 13.4205 0.324617 13.3708 0.227232 13.3113L0.0811542 13.2222L0.0779243 13.2173L0.0730388 13.2141L0.0681695 13.2108L0.0649234 13.206L0.0486925 13.1979L0.0324617 13.1898L0.0292317 13.1849L0.0243463 13.1817L0.019477 13.1784L0.0162308 13.1736L0.0130009 13.1687L0.00811542 13.1655H0V13.133L0.0162308 13.1363L0.0324617 13.1411L0.1055 13.1492C0.154193 13.1546 0.28675 13.1628 0.503156 13.1736C0.719578 13.1844 0.949504 13.1844 1.19297 13.1736C1.43643 13.1628 1.68531 13.1384 1.93959 13.1006C2.19387 13.0628 2.49414 12.998 2.8404 12.9061C3.18667 12.8143 3.50479 12.7051 3.79479 12.5787C4.08369 12.4512 4.28927 12.3561 4.41156 12.2934C4.53274 12.2319 4.71777 12.1173 4.96664 11.9498L5.33995 11.6986L5.34319 11.6937L5.34806 11.6905L5.35295 11.6873L5.35618 11.6824L5.35942 11.6775L5.36429 11.6743L5.36918 11.671L5.37241 11.6662L5.38864 11.6613L5.40487 11.6581L5.40812 11.6419L5.41298 11.6257L5.41787 11.6224L5.4211 11.6176L5.29125 11.6095C5.20469 11.6041 5.12083 11.5986 5.03968 11.5932C4.95852 11.5878 4.83139 11.5635 4.65825 11.5203C4.48513 11.4771 4.29848 11.4122 4.09829 11.3258C3.89811 11.2394 3.70334 11.1367 3.51398 11.0178C3.32463 10.899 3.18774 10.8001 3.10334 10.7212C3.02002 10.6434 2.91181 10.5332 2.77872 10.3906C2.64671 10.2469 2.53201 10.0994 2.43463 9.94809C2.33724 9.79681 2.24419 9.62228 2.15547 9.42456L2.02074 9.12956L2.01262 9.10525L2.00451 9.08094L1.99964 9.06473L1.99639 9.04852L2.02074 9.05176L2.04509 9.05663L2.22362 9.08094C2.34266 9.09715 2.52932 9.10254 2.78359 9.09715C3.03788 9.09175 3.21371 9.08094 3.31109 9.06473C3.40848 9.04852 3.46799 9.03771 3.48963 9.03231L3.52209 9.02421L3.56267 9.0161L3.60325 9.008L3.60649 9.00314L3.61136 8.9999L3.61625 8.99665L3.61948 8.99179L3.58702 8.98369L3.55455 8.97558L3.52209 8.96748L3.48963 8.95938L3.45717 8.95127C3.43553 8.94587 3.39767 8.93506 3.34355 8.91885C3.28946 8.90265 3.14338 8.84321 2.90532 8.74056C2.66728 8.63791 2.47791 8.53796 2.33724 8.44071C2.19622 8.34317 2.06176 8.23651 1.93472 8.1214C1.80812 8.0047 1.66908 7.8545 1.51758 7.67081C1.3661 7.48712 1.23085 7.2737 1.11181 7.03057C0.992792 6.78745 0.903522 6.55513 0.844004 6.33361C0.784724 6.1134 0.745615 5.88825 0.727158 5.66096L0.697926 5.32059L0.714157 5.32383L0.730388 5.32869L0.746619 5.3368L0.762849 5.3449L0.77908 5.353L0.795311 5.36111L1.04689 5.47457C1.21462 5.55021 1.42291 5.61505 1.67178 5.66907C1.92066 5.72309 2.06943 5.75282 2.11812 5.75821L2.19116 5.76632H2.33724L2.33401 5.76146L2.32913 5.75821L2.32426 5.75497L2.32101 5.75011L2.31778 5.74525L2.31289 5.74201L2.30803 5.73876L2.30478 5.7339L2.28855 5.7258L2.27232 5.71769L2.26909 5.71283L2.2642 5.70959L2.25933 5.70635L2.25609 5.70149L2.23986 5.69338L2.22362 5.68528L2.22039 5.68041C2.21715 5.67824 2.17061 5.64367 2.08079 5.57668C1.99206 5.50861 1.89901 5.42054 1.80162 5.31248C1.70424 5.20442 1.60685 5.09096 1.50947 4.97211C1.4119 4.85298 1.32501 4.72552 1.24977 4.59121C1.17404 4.45614 1.09396 4.28432 1.00956 4.07578C0.926245 3.86831 0.862945 3.65923 0.819657 3.44852C0.776386 3.23781 0.75204 3.0298 0.746619 2.82449C0.741214 2.61918 0.746619 2.44359 0.762849 2.29772C0.77908 2.15184 0.811542 1.98705 0.860234 1.80336C0.908927 1.61967 0.979271 1.42517 1.07124 1.21986L1.2092 0.9119L1.21731 0.887588L1.22543 0.863275L1.23031 0.860034L1.23354 0.855171L1.23679 0.850308L1.24166 0.847067L1.24654 0.850308L1.24977 0.855171L1.25302 0.860034L1.25789 0.863275L1.26278 0.866517L1.26601 0.871379L1.26925 0.876242L1.27412 0.879484L1.28224 0.895692L1.29035 0.9119L1.29524 0.915142L1.29847 0.920005L1.51758 1.16313C1.66366 1.32521 1.8368 1.50621 2.03697 1.70611C2.23716 1.90601 2.34807 2.00974 2.3697 2.01731C2.39135 2.02595 2.41839 2.0508 2.45086 2.09187C2.48332 2.13186 2.59153 2.22749 2.77547 2.37876C2.95943 2.53003 3.20019 2.70564 3.49775 2.90553C3.79532 3.10543 4.12534 3.30264 4.48783 3.49714C4.85033 3.69164 5.23987 3.86723 5.65645 4.02391C6.07304 4.1806 6.3652 4.28325 6.53291 4.33187C6.70064 4.3805 6.98738 4.44263 7.39315 4.51827C7.79892 4.59392 8.10461 4.64254 8.31019 4.66415C8.51579 4.68575 8.65646 4.69818 8.73219 4.70143L8.84581 4.70467L8.84258 4.68036L8.83769 4.65604L8.80523 4.45344C8.78359 4.31837 8.77277 4.12927 8.77277 3.88614C8.77277 3.64302 8.79171 3.41881 8.82958 3.21349C8.86746 3.00818 8.92427 2.80018 9 2.58947C9.07575 2.37876 9.14988 2.20964 9.22236 2.08215C9.29595 1.95572 9.39225 1.81147 9.51127 1.64938C9.63031 1.4873 9.7845 1.31982 9.97385 1.14692C10.1632 0.974027 10.3796 0.820047 10.6231 0.684983C10.8665 0.549918 11.0911 0.447254 11.2967 0.377023C11.5023 0.306792 11.6754 0.260857 11.8161 0.239251C11.9567 0.217646 12.0271 0.205214 12.0271 0.201972Z" fill="url(#paint0_linear_108_5406)"/>
<defs>
<linearGradient id="paint0_linear_108_5406" x1="19.8" y1="2.02421" x2="-7.62943" y2="8.65711" gradientUnits="userSpaceOnUse">
<stop stop-color="#DF0024"/>
<stop offset="1" stop-color="#FF3858"/>
</linearGradient>
</defs>
</svg>
