<svg width="22" height="24" viewBox="0 0 22 24" fill="none" xmlns="http://www.w3.org/2000/svg">
<path fill-rule="evenodd" clip-rule="evenodd" d="M1.7434 0.329706C1.37325 -0.0801835 0.740909 -0.112402 0.331019 0.257745C-0.0788713 0.627892 -0.111089 1.26024 0.259057 1.67013L2.83286 4.52028C2.75407 4.66438 2.71035 4.82855 2.71035 4.9999V11.9999C2.71035 15.4053 4.75079 18.1505 6.62664 19.9681C7.57891 20.8908 8.52742 21.6125 9.23677 22.1034C9.59235 22.3495 9.89022 22.5393 10.1016 22.6689C10.2074 22.7337 10.2917 22.7836 10.3509 22.818C10.3806 22.8353 10.404 22.8486 10.4207 22.8581L10.4406 22.8694L10.4468 22.8728L10.4489 22.874L10.4496 22.8744C10.45 22.8746 10.4503 22.8747 10.9347 21.9999L10.4503 22.8747C10.7589 23.0456 11.1346 23.0413 11.4392 22.8633C13.1323 21.874 14.6778 20.6153 16.0279 19.1321L20.1259 23.6701C20.4961 24.08 21.1284 24.1122 21.5383 23.7421C21.9482 23.3719 21.9804 22.7396 21.6103 22.3297L16.7646 16.9638C16.7569 16.9549 16.7489 16.9461 16.7408 16.9374L5.12776 4.07746C5.11736 4.06536 5.10668 4.05354 5.09576 4.04201L1.7434 0.329706ZM4.71035 6.59936V11.9999C4.71035 14.5945 6.28206 16.8493 8.01838 18.5317C8.87218 19.359 9.72975 20.0123 10.375 20.4589C10.5881 20.6064 10.777 20.7306 10.9336 20.8304C12.3054 19.9632 13.5663 18.8902 14.6803 17.6398L4.71035 6.59936ZM10.5523 1.07581C10.7974 0.974421 11.0729 0.974627 11.3179 1.07638L18.5422 4.07638C18.9154 4.23137 19.1587 4.59578 19.1587 4.99992V11.9999V12.0059H19.1587C19.1541 12.7726 19.0475 13.5354 18.8417 14.2698C18.6926 14.8016 18.1407 15.1119 17.6089 14.9628C17.0771 14.8137 16.7668 14.2618 16.9159 13.73C17.0729 13.1698 17.1549 12.5857 17.1587 11.9969V5.66745L10.9336 3.08238L8.46291 4.10402C7.95254 4.31507 7.36772 4.07242 7.15668 3.56205C6.94563 3.05168 7.18828 2.46685 7.69865 2.25581L10.5523 1.07581Z" fill="#919BA3"/>
</svg>
