<svg width="27" height="28" viewBox="0 0 27 28" fill="none" xmlns="http://www.w3.org/2000/svg">
<path d="M21.6663 22C22.3736 22 23.0519 22.2809 23.552 22.781C24.0521 23.2811 24.333 23.9594 24.333 24.6666C24.333 25.3739 24.0521 26.0521 23.552 26.5522C23.0519 27.0523 22.3736 27.3333 21.6663 27.3333C20.9591 27.3333 20.2808 27.0523 19.7807 26.5522C19.2806 26.0521 18.9997 25.3739 18.9997 24.6666C18.9997 23.1866 20.1863 22 21.6663 22ZM0.333008 0.666626H4.69301L5.94634 3.33329H25.6663C26.02 3.33329 26.3591 3.47377 26.6091 3.72382C26.8592 3.97387 26.9997 4.313 26.9997 4.66663C26.9997 4.89329 26.933 5.11996 26.8397 5.33329L22.0663 13.96C21.613 14.7733 20.733 15.3333 19.733 15.3333H9.79967L8.59967 17.5066L8.55967 17.6666C8.55967 17.755 8.59479 17.8398 8.6573 17.9023C8.71982 17.9648 8.8046 18 8.89301 18H24.333V20.6666H8.33301C7.62576 20.6666 6.94749 20.3857 6.44739 19.8856C5.94729 19.3855 5.66634 18.7072 5.66634 18C5.66634 17.5333 5.78634 17.0933 5.98634 16.72L7.79967 13.4533L2.99967 3.33329H0.333008V0.666626ZM8.33301 22C9.04025 22 9.71853 22.2809 10.2186 22.781C10.7187 23.2811 10.9997 23.9594 10.9997 24.6666C10.9997 25.3739 10.7187 26.0521 10.2186 26.5522C9.71853 27.0523 9.04025 27.3333 8.33301 27.3333C7.62576 27.3333 6.94749 27.0523 6.44739 26.5522C5.94729 26.0521 5.66634 25.3739 5.66634 24.6666C5.66634 23.1866 6.85301 22 8.33301 22ZM20.333 12.6666L24.0397 5.99996H7.18634L10.333 12.6666H20.333Z" fill="black"/>
</svg>
