<svg width="32" height="33" viewBox="0 0 32 33" fill="none" xmlns="http://www.w3.org/2000/svg">
<path d="M9.19935 27.9667C11.1993 29.1667 13.5993 29.8334 15.9993 29.8334C23.3327 29.8334 29.3327 23.8334 29.3327 16.5001C29.3327 9.16675 23.3327 3.16675 15.9993 3.16675C8.66602 3.16675 2.66602 9.16675 2.66602 16.5001C2.66602 18.9001 3.33268 21.1667 4.39935 23.1667L3.10646 28.1394C2.91173 28.8883 3.60494 29.5652 4.349 29.3526L9.19935 27.9667Z" stroke="#C90020" stroke-width="1.5" stroke-miterlimit="10" stroke-linecap="round" stroke-linejoin="round"/>
<path d="M22 20.298C22 20.514 21.9519 20.736 21.8498 20.952C21.7476 21.168 21.6154 21.372 21.4412 21.564C21.1467 21.888 20.8222 22.122 20.4557 22.272C20.0951 22.422 19.7046 22.5 19.2839 22.5C18.671 22.5 18.016 22.356 17.325 22.062C16.634 21.768 15.9429 21.372 15.2579 20.874C14.5669 20.37 13.9119 19.812 13.2869 19.194C12.668 18.57 12.1092 17.916 11.6104 17.232C11.1177 16.548 10.7211 15.864 10.4326 15.186C10.1442 14.502 10 13.848 10 13.224C10 12.816 10.0721 12.426 10.2163 12.066C10.3605 11.7 10.5889 11.364 10.9074 11.064C11.2919 10.686 11.7126 10.5 12.1572 10.5C12.3255 10.5 12.4937 10.536 12.644 10.608C12.8002 10.68 12.9384 10.788 13.0466 10.944L14.4407 12.906C14.5488 13.056 14.6269 13.194 14.681 13.326C14.7351 13.452 14.7651 13.578 14.7651 13.692C14.7651 13.836 14.7231 13.98 14.639 14.118C14.5608 14.256 14.4467 14.4 14.3025 14.544L13.8458 15.018C13.7797 15.084 13.7496 15.162 13.7496 15.258C13.7496 15.306 13.7556 15.348 13.7677 15.396C13.7857 15.444 13.8037 15.48 13.8157 15.516C13.9239 15.714 14.1102 15.972 14.3746 16.284C14.645 16.596 14.9334 16.914 15.2459 17.232C15.5704 17.55 15.8828 17.844 16.2013 18.114C16.5138 18.378 16.7722 18.558 16.9765 18.666C17.0065 18.678 17.0426 18.696 17.0846 18.714C17.1327 18.732 17.1808 18.738 17.2349 18.738C17.337 18.738 17.4151 18.702 17.4812 18.636L17.9379 18.186C18.0881 18.036 18.2323 17.922 18.3706 17.85C18.5088 17.766 18.647 17.724 18.7972 17.724C18.9114 17.724 19.0315 17.748 19.1637 17.802C19.2959 17.856 19.4342 17.934 19.5844 18.036L21.5734 19.446C21.7296 19.554 21.8378 19.68 21.9039 19.83C21.9639 19.98 22 20.13 22 20.298Z" stroke="#C90020" stroke-width="1.5" stroke-miterlimit="10"/>
</svg>
