<svg width="20" height="15" viewBox="0 0 20 15" fill="none" xmlns="http://www.w3.org/2000/svg">
<path d="M10.4383 14.4802L6.37607 14.4042C5.06083 14.3778 3.7423 14.4306 2.45285 14.1565C0.491281 13.747 0.352317 11.7391 0.206906 10.0549C0.00654353 7.68702 0.0841097 5.2762 0.462219 2.92813C0.675674 1.61061 1.51571 0.824442 2.81479 0.738892C7.20014 0.428417 11.6146 0.465211 15.9903 0.610059C16.4524 0.623338 16.9177 0.695914 17.3734 0.778524C19.6227 1.18144 19.6775 3.45684 19.8233 5.3723C19.9688 7.30752 19.9074 9.25268 19.6294 11.1747C19.4065 12.7661 18.9798 14.1007 17.1795 14.2295C14.9237 14.398 12.7197 14.5336 10.4576 14.4904C10.4577 14.4802 10.4447 14.4802 10.4383 14.4802ZM8.05009 10.4512C9.74999 9.45378 11.4175 8.47299 13.1076 7.48227C11.4046 6.48486 9.74027 5.50407 8.05009 4.51335V10.4512Z" fill="url(#paint0_linear_108_5410)"/>
<defs>
<linearGradient id="paint0_linear_108_5410" x1="21.8796" y1="2.25153" x2="-7.77303" y2="10.4813" gradientUnits="userSpaceOnUse">
<stop stop-color="#DF0024"/>
<stop offset="1" stop-color="#FF3858"/>
</linearGradient>
</defs>
</svg>
